<svg xmlns="http://www.w3.org/2000/svg" viewBox="0 0 276.15 53.81"><defs><style>.cls-1{fill:#1d1d1b;}</style></defs><g id="Layer_2" data-name="Layer 2"><g id="Layer_1-2" data-name="Layer 1"><path class="cls-1" d="M230.63,12.17V.72h45.52V12.17H260.4V53.1h-14V12.17Z"/><path class="cls-1" d="M219.52,17.08a5.6,5.6,0,0,0-1.91-4,7.87,7.87,0,0,0-5.15-1.43,10.37,10.37,0,0,0-3.6.53,4.43,4.43,0,0,0-2.06,1.42,3.5,3.5,0,0,0-.69,2,3.2,3.2,0,0,0,.35,1.7,3.78,3.78,0,0,0,1.27,1.36A9.77,9.77,0,0,0,210,19.8a25.2,25.2,0,0,0,3.22.87l4.3.92A31.84,31.84,0,0,1,224.91,24,17.82,17.82,0,0,1,230,27.56a13,13,0,0,1,2.9,4.56,16.41,16.41,0,0,1,1,5.53,14.75,14.75,0,0,1-2.59,8.74,15.67,15.67,0,0,1-7.3,5.45,31,31,0,0,1-11.39,1.87,32.08,32.08,0,0,1-11.91-2,16.47,16.47,0,0,1-7.87-6.23A19.22,19.22,0,0,1,190,34.68h13.5a8,8,0,0,0,1.21,4,6.61,6.61,0,0,0,3,2.48,11.58,11.58,0,0,0,4.66.85,11.1,11.1,0,0,0,3.82-.57,5.07,5.07,0,0,0,2.32-1.56,3.67,3.67,0,0,0,.82-2.27,3.34,3.34,0,0,0-.78-2.11,6.37,6.37,0,0,0-2.47-1.64,26.72,26.72,0,0,0-4.63-1.37l-5.21-1.12a23.92,23.92,0,0,1-11-5.05,12.19,12.19,0,0,1-4-9.68A14.4,14.4,0,0,1,194,7.94a17.73,17.73,0,0,1,7.5-5.84,27.17,27.17,0,0,1,11-2.1,26.25,26.25,0,0,1,11,2.12,16.64,16.64,0,0,1,7.15,6,16.24,16.24,0,0,1,2.54,9Z"/><path class="cls-1" d="M191.94,26.91q0,8.75-3.41,14.74a22.66,22.66,0,0,1-9.18,9.08,28.47,28.47,0,0,1-25.82,0,22.82,22.82,0,0,1-9.15-9.1Q141,35.6,141,26.91t3.39-14.75a22.71,22.71,0,0,1,9.15-9.08,28.6,28.6,0,0,1,25.82,0,22.66,22.66,0,0,1,9.18,9.08Q191.94,18.16,191.94,26.91Zm-14.63,0A22.49,22.49,0,0,0,176.07,19a10.29,10.29,0,0,0-3.66-4.91,11.42,11.42,0,0,0-11.89,0A10.29,10.29,0,0,0,156.86,19a22.27,22.27,0,0,0-1.24,8,22.25,22.25,0,0,0,1.24,7.94,10.17,10.17,0,0,0,19.21,0A22.47,22.47,0,0,0,177.31,26.91Z"/><path class="cls-1" d="M141.85,26.91q0,8.75-3.4,14.74a22.78,22.78,0,0,1-9.18,9.08,27,27,0,0,1-12.89,3.08,26.7,26.7,0,0,1-12.93-3.11,22.78,22.78,0,0,1-9.16-9.1q-3.39-6-3.39-14.69t3.39-14.75a22.67,22.67,0,0,1,9.16-9.08,28.6,28.6,0,0,1,25.82,0,22.78,22.78,0,0,1,9.18,9.08Q141.86,18.16,141.85,26.91Zm-14.63,0A22.27,22.27,0,0,0,126,19a9.54,9.54,0,0,0-9.6-6.58,10.23,10.23,0,0,0-5.95,1.67A10.29,10.29,0,0,0,106.77,19a22.49,22.49,0,0,0-1.24,8,22.47,22.47,0,0,0,1.24,7.94,10.17,10.17,0,0,0,19.21,0A22.25,22.25,0,0,0,127.22,26.91Z"/><path class="cls-1" d="M91.66,31.8a11.92,11.92,0,0,0-4.4-4.32,13.27,13.27,0,0,0-6.14-1.7v-.51a14,14,0,0,0,5.32-2.21,11.36,11.36,0,0,0,3.55-4,11.09,11.09,0,0,0,1.26-5.27,11.67,11.67,0,0,0-2.08-6.93A13.26,13.26,0,0,0,83,2.33,27.37,27.37,0,0,0,72.94.72H50.23V8.08A1.42,1.42,0,0,0,51.65,9.5h4.57a1.08,1.08,0,0,1,0,2.16H9.68a1.93,1.93,0,0,0-1.86,1.27A1.88,1.88,0,0,0,9.6,15.42H59.31a1.46,1.46,0,1,1,0,2.92h-57A2.24,2.24,0,0,0,.07,20a2.19,2.19,0,0,0,2.12,2.73H50.92a1,1,0,0,1,0,2H18.48a2.09,2.09,0,0,0-2,1.37,2,2,0,0,0,1.93,2.7H66.7a1.46,1.46,0,1,1,0,2.91H33.41a2.17,2.17,0,0,0-2.17,2.17h0A2.17,2.17,0,0,0,33.41,36h15.4a1.43,1.43,0,0,1,1.42,1.42V53.1H74.88a23,23,0,0,0,9.82-1.92,15.08,15.08,0,0,0,6.36-5.27,13.48,13.48,0,0,0,2.24-7.65A12.43,12.43,0,0,0,91.66,31.8Z"/></g></g></svg>