<svg xmlns="http://www.w3.org/2000/svg" viewBox="0 0 1518.95 516.29"><defs><style>.cls-1{fill:#fff;}</style></defs><g id="Layer_2" data-name="Layer 2"><g id="typo"><path class="cls-1" d="M152.84,171.12c-3.94-9.12-10.43-19-18.26-30.14-13.33-19-28.45-40.64-11.68-58.34,21.21-22.39,49.32-33.48,80.51-33.48,9.09,0,25.08,8.33,34.12,8.59.56,0,1.12,0,1.66,0,8.29,0,11.29-1.87,11.74-2.59.81-1.3,1.08-6-.42-7.57-7.79-5.48-31.82-20.43-61.7-20.43a89.91,89.91,0,0,0-38.14,8.56C125.22,47.58,107.45,60.05,94.75,75c-20,23.46-40.55,58.72-53.22,81.9C63.91,145.7,87,144.67,97.76,144.67,111.84,144.67,133.8,154.72,152.84,171.12Z" transform="translate(0 -26.33)"/><path class="cls-1" d="M422.47,307.17c38.18,152.72-76.36,149.25-97.19,149.25-26.31,0-38.79-1.49-77.75-20.24-66.94-32.22-76.07-133.9-70.91-188.91,1.42-15.08-3.6-28.66-10.39-39.75-1.49-2.43-3.06-4.74-4.68-6.92-1.72-2.34-3.48-4.53-5.23-6.55-.63-.72-1.26-1.44-1.89-2.12-18.78-20.63-44-33.4-56.67-33.4-14.63,0-32.91,2.24-49.68,10.58a81,81,0,0,0-8.36,4.75,78.52,78.52,0,0,0-7,5.17,76,76,0,0,0-10,9.9C.4,215.63-5.51,259.21,5.15,318.46,30.22,457.68,175.27,528.13,299.74,540.88c11.27,1.16,52.93-2.31,63-7.49,139-71.59,80.25-236.71,80.57-243.57C443.47,286.28,415.23,278.2,422.47,307.17Z" transform="translate(0 -26.33)"/><path class="cls-1" d="M598.37,75.73q-.58-7.4-5.51-11.54T578,60.05a30,30,0,0,0-10.39,1.52,12.75,12.75,0,0,0-6,4.1,10,10,0,0,0-2,5.92,9.26,9.26,0,0,0,1,4.92,11.14,11.14,0,0,0,3.66,3.92,28.33,28.33,0,0,0,6.43,3.14A69.07,69.07,0,0,0,580,86.08l12.43,2.67a93.23,93.23,0,0,1,21.52,7A51.77,51.77,0,0,1,628.62,106a37.42,37.42,0,0,1,8.39,13.2,47.09,47.09,0,0,1,2.78,16q-.07,14.94-7.47,25.29T611.2,176.23q-13.71,5.4-32.94,5.4-19.75,0-34.43-5.84a47.7,47.7,0,0,1-22.78-18q-8.1-12.17-8.17-31.17h39a23.12,23.12,0,0,0,3.47,11.69,19.4,19.4,0,0,0,8.77,7.17,33.86,33.86,0,0,0,13.49,2.44,32.14,32.14,0,0,0,11-1.63,14.81,14.81,0,0,0,6.73-4.51,10.62,10.62,0,0,0,2.37-6.58,9.56,9.56,0,0,0-2.26-6.1,18.56,18.56,0,0,0-7.13-4.73,77.62,77.62,0,0,0-13.39-4l-15.08-3.26q-20.13-4.35-31.7-14.6t-11.5-28a41.77,41.77,0,0,1,7.73-25.26q7.8-10.83,21.67-16.9T578,26.33q18.35,0,31.73,6.14a47.79,47.79,0,0,1,20.67,17.26q7.27,11.15,7.36,26Z" transform="translate(0 -26.33)"/><path class="cls-1" d="M655.46,179.86V28.4h65.38q16.86,0,29.51,6.65A48.4,48.4,0,0,1,770,53.76q7,12.06,7,28.18,0,16.28-7.22,28.18a47.8,47.8,0,0,1-20.19,18.34q-13,6.43-30.28,6.43H680.31V103h30.77a27.58,27.58,0,0,0,12.38-2.56,18.45,18.45,0,0,0,7.92-7.28,21.7,21.7,0,0,0,2.77-11.17,21.23,21.23,0,0,0-2.77-11.13,18.19,18.19,0,0,0-7.92-7.1,28.29,28.29,0,0,0-12.38-2.48h-14.5V179.86Z" transform="translate(0 -26.33)"/><path class="cls-1" d="M833.25,28.4V179.86H792.13V28.4Z" transform="translate(0 -26.33)"/><path class="cls-1" d="M994.18,85.2H952.46a29,29,0,0,0-2.32-9.4A22.43,22.43,0,0,0,945,68.52a22.72,22.72,0,0,0-8-4.73,31.32,31.32,0,0,0-10.58-1.67q-10.35,0-17.49,5a30.74,30.74,0,0,0-10.8,14.42q-3.66,9.39-3.66,22.56,0,13.91,3.74,23.26t10.83,14q7.11,4.69,17.09,4.69a33.51,33.51,0,0,0,10.2-1.44,23.29,23.29,0,0,0,7.84-4.18,22.25,22.25,0,0,0,5.44-6.61,26.6,26.6,0,0,0,2.84-8.77l41.72.3a56.47,56.47,0,0,1-5.4,19.56,63.39,63.39,0,0,1-34.32,31.84q-12.57,5.1-29.21,5.1-20.85,0-37.39-9a64.53,64.53,0,0,1-26.1-26.33q-9.59-17.37-9.58-42.52t9.76-42.64a65.52,65.52,0,0,1,26.33-26.25,76.8,76.8,0,0,1,37-8.91,84.8,84.8,0,0,1,26.4,3.92A63.82,63.82,0,0,1,972.8,41.67a57.12,57.12,0,0,1,14.65,18.45A67.62,67.62,0,0,1,994.18,85.2Z" transform="translate(0 -26.33)"/><path class="cls-1" d="M1006.6,28.4h45.85L1082,89.93h1.19L1112.8,28.4h45.85L1103,132.23v47.63h-40.83V132.23Z" transform="translate(0 -26.33)"/><path class="cls-1" d="M598.37,256.22q-.58-7.4-5.51-11.54T578,240.54a30,30,0,0,0-10.39,1.52,12.75,12.75,0,0,0-6,4.1,10,10,0,0,0-2,5.92,9.26,9.26,0,0,0,1,4.92,11.14,11.14,0,0,0,3.66,3.92,27.92,27.92,0,0,0,6.43,3.14,69.07,69.07,0,0,0,9.32,2.51l12.43,2.67a93.23,93.23,0,0,1,21.52,7,51.77,51.77,0,0,1,14.64,10.24A37.37,37.37,0,0,1,637,299.71a47,47,0,0,1,2.78,16q-.07,14.94-7.47,25.29T611.2,356.72q-13.71,5.4-32.94,5.4-19.75,0-34.43-5.84a47.7,47.7,0,0,1-22.78-18q-8.1-12.16-8.17-31.17h39a23.12,23.12,0,0,0,3.47,11.69,19.4,19.4,0,0,0,8.77,7.17,33.86,33.86,0,0,0,13.49,2.44,32.14,32.14,0,0,0,11-1.63,14.81,14.81,0,0,0,6.73-4.51,10.62,10.62,0,0,0,2.37-6.58,9.56,9.56,0,0,0-2.26-6.1,18.56,18.56,0,0,0-7.13-4.73,77.62,77.62,0,0,0-13.39-4l-15.08-3.26q-20.13-4.35-31.7-14.6t-11.5-28a41.77,41.77,0,0,1,7.73-25.26q7.8-10.83,21.67-16.9T578,206.82q18.35,0,31.73,6.14a47.79,47.79,0,0,1,20.67,17.26q7.27,11.15,7.36,26Z" transform="translate(0 -26.33)"/><path class="cls-1" d="M696.58,208.89V360.35H655.46V208.89Z" transform="translate(0 -26.33)"/><path class="cls-1" d="M716.7,360.35V337.57L788.28,242H717V208.89H840.64v22.78l-71.58,95.55h71.29v33.13Z" transform="translate(0 -26.33)"/><path class="cls-1" d="M861.35,360.35V337.57L932.94,242H861.65V208.89H985.3v22.78l-71.59,95.55H985v33.13Z" transform="translate(0 -26.33)"/><path class="cls-1" d="M1005.41,360.35V208.89h41.12V327.22h61.24v33.13Z" transform="translate(0 -26.33)"/><path class="cls-1" d="M1124.33,360.35V208.89h109.16V242h-68v26h62.42v33.13h-62.42v26h67.74v33.13Z" transform="translate(0 -26.33)"/><path class="cls-1" d="M516.72,540.84V389.38h106.5v33.13H557.84v26h58.87v33.13H557.84v59.17Z" transform="translate(0 -26.33)"/><path class="cls-1" d="M638.31,540.84V389.38H747.46v33.13h-68v26h62.41v33.13H679.43v26h67.74v33.13Z" transform="translate(0 -26.33)"/><path class="cls-1" d="M849.52,436.71q-.6-7.4-5.51-11.54T829.11,421a29.93,29.93,0,0,0-10.39,1.52,12.84,12.84,0,0,0-6,4.1,10,10,0,0,0-2,5.92,9.26,9.26,0,0,0,1,4.92,11.14,11.14,0,0,0,3.66,3.92,27.92,27.92,0,0,0,6.43,3.14,68.67,68.67,0,0,0,9.32,2.51l12.42,2.67a93.07,93.07,0,0,1,21.52,7A51.7,51.7,0,0,1,879.77,467a37.39,37.39,0,0,1,8.39,13.2,47,47,0,0,1,2.77,16q-.07,14.94-7.47,25.29t-21.11,15.75q-13.73,5.4-33,5.4-19.74,0-34.42-5.84a47.7,47.7,0,0,1-22.78-18q-8.1-12.17-8.17-31.17h39.05a23.12,23.12,0,0,0,3.47,11.69,19.37,19.37,0,0,0,8.76,7.17,34,34,0,0,0,13.5,2.44,32.14,32.14,0,0,0,11-1.63,14.86,14.86,0,0,0,6.73-4.51,10.62,10.62,0,0,0,2.37-6.58,9.56,9.56,0,0,0-2.26-6.1,18.56,18.56,0,0,0-7.13-4.73,77.62,77.62,0,0,0-13.39-4l-15.09-3.26q-20.12-4.35-31.69-14.6t-11.5-28a41.7,41.7,0,0,1,7.73-25.26q7.8-10.83,21.67-16.9t31.84-6.06q18.33,0,31.72,6.14a47.76,47.76,0,0,1,20.68,17.26q7.28,11.15,7.35,26Z" transform="translate(0 -26.33)"/><path class="cls-1" d="M902.47,422.51V389.38h131.64v33.13H988.55V540.84H948V422.51Z" transform="translate(0 -26.33)"/><path class="cls-1" d="M1090.61,389.38V540.84h-41.12V389.38Z" transform="translate(0 -26.33)"/><path class="cls-1" d="M1151.54,389.38l31.07,106.79h1.18l31.06-106.79h46.44l-50,151.46h-56.21l-50-151.46Z" transform="translate(0 -26.33)"/><path class="cls-1" d="M1290.28,540.84h-44.37l50-151.46h56.21l50,151.46h-44.37L1324.6,431.09h-1.18ZM1282,481.08h83.42v30.77H1282Z" transform="translate(0 -26.33)"/><path class="cls-1" d="M1416.6,540.84V389.38h41.11V507.71H1519v33.13Z" transform="translate(0 -26.33)"/></g></g></svg>