<svg xmlns="http://www.w3.org/2000/svg" viewBox="0 0 130 130"><defs><style>.cls-1{fill:#fefb01;}.cls-2{fill:#090806;}.cls-3{fill:#fdfdfd;}</style></defs><g id="Layer_2" data-name="Layer 2"><g id="Layer_1-2" data-name="Layer 1"><path class="cls-1" d="M0,130V0H130V130ZM65.65,28.86C57.11,29,50.75,32,46.36,38.41c-2.56,3.76-3.07,8.21-3.08,12.68,0,1.11-.25,1.73-1.54,1.69C38.28,52.69,36,54.05,35,56.73c-1.08,2.83-.26,5.66,2.36,7.81a22.3,22.3,0,0,0,3.48,2.38c1.38.77,1.42,1.65.71,2.91A21.38,21.38,0,0,1,32.94,78c-.85.47-1.75.87-2.56,1.41a4.45,4.45,0,0,0-.95,6.81c1.65,2,4,2.73,6.27,3.54.67.23,1.61.62,1.81,1.16,1.19,3.25,3.74,4.22,6.82,4.15,4.15-.09,7.54,1.7,11.08,3.58a23,23,0,0,0,8.76,2.63,17.9,17.9,0,0,0,11.16-3.13,17.21,17.21,0,0,1,9.91-3.06,13.66,13.66,0,0,0,2.11-.18,5.23,5.23,0,0,0,4.48-3.29A3.21,3.21,0,0,1,94,89.69a23.23,23.23,0,0,0,5-2.31c3.59-2.52,3.24-6.49-.6-8.57-.81-.44-1.64-.84-2.43-1.31a20.7,20.7,0,0,1-7.84-7.81c-.63-1.13-.6-1.9.62-2.67a26.19,26.19,0,0,0,4.64-3.51,6,6,0,0,0,1.19-7.15,6.08,6.08,0,0,0-6.19-3.58c-1.55.13-1.94-.43-2-1.85,0-3.7-.37-7.38-2.13-10.72C80.18,32.42,73.38,29.18,65.65,28.86Z"/><path class="cls-2" d="M65.88,18.17c10,.41,18.81,4.61,24.14,14.69,2.28,4.33,2.72,9.1,2.76,13.89,0,1.84.51,2.56,2.52,2.4a8.19,8.19,0,0,1,6.48,13.9,33.51,33.51,0,0,1-6,4.54c-1.57,1-1.61,2-.8,3.46a26.66,26.66,0,0,0,10.15,10.12c1,.61,2.1,1.13,3.15,1.69,5,2.69,5.43,7.84.78,11.1a29.55,29.55,0,0,1-6.44,3,4.18,4.18,0,0,0-2.83,2.48,6.76,6.76,0,0,1-5.8,4.26,16.65,16.65,0,0,1-2.72.23,22.33,22.33,0,0,0-12.84,4A23.26,23.26,0,0,1,64,111.94a29.59,29.59,0,0,1-11.34-3.41c-4.58-2.44-9-4.75-14.35-4.64-4,.09-7.29-1.17-8.84-5.37-.26-.71-1.47-1.2-2.34-1.51-3-1.05-6-2.05-8.12-4.58a5.77,5.77,0,0,1,1.24-8.82c1-.7,2.2-1.22,3.3-1.82A27.61,27.61,0,0,0,34.66,71.22c.92-1.62.88-2.76-.92-3.75a31.22,31.22,0,0,1-4.5-3.09c-3.4-2.78-4.45-6.45-3.06-10.11,1.32-3.47,4.25-5.24,8.74-5.12,1.66,0,2-.76,2-2.19,0-5.79.67-11.56,4-16.43C46.58,22.17,54.82,18.32,65.88,18.17ZM42.41,56.76c-1.21-.33-2.14-.54-3-.83-1.39-.44-2.75-1.06-4.17-1.37-1.57-.36-3.16-.27-4,1.46s-.09,3,1.2,4.09,2.61,1.88,4,2.77c6.1,4,6.31,4.9,2.63,11.38-3.34,5.88-8.4,9.85-14.28,12.94A11.26,11.26,0,0,0,23,88.6c.57.56,1,1.36,1.72,1.64,2.24.94,4.62,1.57,6.84,2.57a5.08,5.08,0,0,1,2.66,2.33c1.23,3.35,1.09,3.42,4.78,3.49a24.75,24.75,0,0,1,13.55,3.83c8.17,5.36,16.44,5.32,24.6,0a24.78,24.78,0,0,1,13.34-3.83,9,9,0,0,0,2.9-.3c.66-.24,1.53-1,1.57-1.59.21-2.94,2.19-3.73,4.55-4.43a42,42,0,0,0,6.2-2.49c1.3-.62,1.31-1.54,0-2.28-1.17-.64-2.36-1.23-3.49-1.92-6-3.67-10.83-8.42-13.25-15.22-1.16-3.27-1-3.88,1.81-5.79,1.56-1.07,3.17-2.07,4.73-3.13a16.07,16.07,0,0,0,2.14-1.69A3.1,3.1,0,0,0,98.46,56a2.93,2.93,0,0,0-3.59-1.47c-1.63.35-3.19,1-4.79,1.53-.82.25-1.68.41-2.78.68,0-1,0-1.7,0-2.38,0-3.44.17-6.88,0-10.31a20,20,0,0,0-4.42-12.43c-6.08-7.32-16.81-10.11-26.44-6.66-7.82,2.81-12.85,8.19-13.78,16.64-.46,4.16-.22,8.4-.29,12.6C42.4,54.92,42.41,55.67,42.41,56.76Z"/><path class="cls-3" d="M42.41,56.76c0-1.09,0-1.84,0-2.59.07-4.2-.17-8.44.29-12.6.93-8.45,6-13.83,13.78-16.64,9.63-3.45,20.36-.66,26.44,6.66A20,20,0,0,1,87.34,44c.13,3.43,0,6.87,0,10.31,0,.68,0,1.36,0,2.38,1.1-.27,2-.43,2.78-.68,1.6-.5,3.16-1.18,4.79-1.53A2.93,2.93,0,0,1,98.46,56a3.1,3.1,0,0,1-.83,3.81,16.07,16.07,0,0,1-2.14,1.69c-1.56,1.06-3.17,2.06-4.73,3.13-2.77,1.91-3,2.52-1.81,5.79,2.42,6.8,7.23,11.55,13.25,15.22,1.13.69,2.32,1.28,3.49,1.92,1.35.74,1.34,1.66,0,2.28a42,42,0,0,1-6.2,2.49c-2.36.7-4.34,1.49-4.55,4.43,0,.58-.91,1.35-1.57,1.59a9,9,0,0,1-2.9.3,24.78,24.78,0,0,0-13.34,3.83c-8.16,5.33-16.43,5.37-24.6,0A24.75,24.75,0,0,0,39,98.63c-3.69-.07-3.55-.14-4.78-3.49a5.08,5.08,0,0,0-2.66-2.33c-2.22-1-4.6-1.63-6.84-2.57C24.05,90,23.59,89.16,23,88.6a11.26,11.26,0,0,1,1.71-1.4C30.61,84.11,35.67,80.14,39,74.26c3.68-6.48,3.47-7.38-2.63-11.38-1.35-.89-2.71-1.77-4-2.77s-2-2.42-1.2-4.09,2.41-1.82,4-1.46c1.42.31,2.78.93,4.17,1.37C40.27,56.22,41.2,56.43,42.41,56.76Z"/></g></g></svg>