<svg xmlns="http://www.w3.org/2000/svg" viewBox="0 0 209 209"><defs><style>.cls-1{fill:#ff4500;}.cls-2{fill:#fff;}</style></defs><g id="Layer_2" data-name="Layer 2"><g id="Layer_1-2" data-name="Layer 1"><rect class="cls-1" width="209" height="209"/><path class="cls-2" d="M174.2,104.61a15.26,15.26,0,0,1-8.46,13.9c0,.38,0,.76.06,1.15,0,.76,0,1.53,0,2.3,0,.38,0,.76-.06,1.15,0,23.4-27.28,42.42-60.93,42.42s-60.92-19-60.92-42.42c0-.39,0-.77-.07-1.15,0-.77,0-1.54,0-2.3,0-.39,0-.77.07-1.15a15.26,15.26,0,1,1,16.82-25,74.89,74.89,0,0,1,19.44-9.41,74.72,74.72,0,0,1,10.54-2.49,73.43,73.43,0,0,1,10.78-.95l7.73-36.26a3.42,3.42,0,0,1,.5-1.18,3.18,3.18,0,0,1,.91-.88,3,3,0,0,1,1.19-.47,3.2,3.2,0,0,1,1.27,0L138.67,47a10.45,10.45,0,1,1-1.36,6.37L115,48.7l-6.79,32.61a74,74,0,0,1,31,7.49,73.52,73.52,0,0,1,9.26,5.36,15.25,15.25,0,0,1,25.81,10.45ZM70.5,119.06a10.46,10.46,0,0,0,9.65,6.45,10.46,10.46,0,1,0-9.65-6.45Zm59.85,25.08a2.82,2.82,0,0,0-1.94-4.84,3.43,3.43,0,0,0-2.07.73,34.17,34.17,0,0,1-5,3,34.76,34.76,0,0,1-5.41,2.09,34.63,34.63,0,0,1-11.46,1.32,33.85,33.85,0,0,1-5.78-.23,34.71,34.71,0,0,1-11-3.34,34.11,34.11,0,0,1-4.94-3,2.75,2.75,0,0,0-1.92-.64,2.83,2.83,0,0,0-2,4.61,40.2,40.2,0,0,0,18.94,7.74,39.48,39.48,0,0,0,6.87.3,39.55,39.55,0,0,0,6.88-.3,40,40,0,0,0,13.1-4.09,40.49,40.49,0,0,0,5.84-3.65Zm-1.92-17.8a10.27,10.27,0,0,0,4.13-.8,11.82,11.82,0,1,0-4,.39Z"/></g></g></svg>