<svg xmlns="http://www.w3.org/2000/svg" viewBox="0 0 146 146"><defs><style>.cls-1{fill:#fff;}.cls-2{fill:#1778f2;}</style></defs><g id="Layer_2" data-name="Layer 2"><g id="Layer_1-2" data-name="Layer 1"><rect class="cls-1" width="146" height="146"/><path class="cls-2" d="M137.94,0H8.06A8.06,8.06,0,0,0,0,8.06V137.94A8.06,8.06,0,0,0,8.06,146H78V89.46H59v-22H78V51.17C78,32.32,89.49,22,106.32,22a158.11,158.11,0,0,1,17,.87V42.62H111.65c-9.15,0-10.91,4.35-10.91,10.73V67.42h21.83l-2.86,22h-19V146h37.2a8.06,8.06,0,0,0,8.07-8.05V8.05A8.05,8.05,0,0,0,137.94,0Z"/></g></g></svg>