<svg xmlns="http://www.w3.org/2000/svg" viewBox="0 0 119 119"><defs><style>.cls-1{fill:#1ca0f0;}.cls-2{fill:#fdfefe;}</style></defs><g id="Layer_2" data-name="Layer 2"><g id="Layer_1-2" data-name="Layer 1"><circle class="cls-1" cx="59.5" cy="59.5" r="84.15"/><path class="cls-2" d="M96,37.3c-1.48,1.74-2.93,3.5-4.46,5.2A8.39,8.39,0,0,1,89.67,44,1.47,1.47,0,0,0,89,45.75a26.31,26.31,0,0,1-.64,9.68C84.89,71,75.75,81.74,60.9,87.42a40.62,40.62,0,0,1-28.41.29,88.55,88.55,0,0,1-8.43-3.85,4,4,0,0,1-1-.76,31.53,31.53,0,0,0,22-6.3c-7-.61-11.62-4-14.1-10.56,2,.07,3.91.42,5.85-.53-6.74-2.58-10.53-7.22-11-14.37L32.16,53l.18-.32a15.07,15.07,0,0,1-6.18-9A14.75,14.75,0,0,1,27.8,32.75,42.65,42.65,0,0,0,59,48.37c-.05-.77-.09-1.41-.14-2C58.27,38.74,62.74,32.18,70,30.27a14.55,14.55,0,0,1,14.31,3.65,1.52,1.52,0,0,0,1.62.42,34.65,34.65,0,0,0,8.35-3.18,15.77,15.77,0,0,1-6,7.86l.15.3c1.7-.42,3.4-.83,5.1-1.27.84-.22,1.67-.5,2.5-.75Z"/><path class="cls-2" d="M105.54,31.39l0-.15h.09l-.09.14Z"/></g></g></svg>