<svg xmlns="http://www.w3.org/2000/svg" viewBox="0 0 238 238"><defs><style>.cls-1{fill:#6338a9;}.cls-2{fill:#020102;}.cls-3{fill:#f9f9f9;}</style></defs><g id="Layer_2" data-name="Layer 2"><g id="Layer_1-2" data-name="Layer 1"><rect class="cls-1" width="238" height="238"/><path class="cls-1" d="M63.83,50.13c-.15.5-.32,1-.44,1.52-1.46,5.8-2.93,11.59-4.34,17.4a23.41,23.41,0,0,0-.92,5.26q-.08,48.93,0,97.86v2.13H83.56v14.09c4.34,0,8.46.07,12.57,0a4.22,4.22,0,0,0,2.62-1.08c4-3.82,7.85-7.72,11.7-11.66a4,4,0,0,1,3.12-1.33c6.34.07,12.69,0,19,.06a3.82,3.82,0,0,0,3-1.2Q157,151.7,178.39,130.35a4,4,0,0,0,1.32-3.13q-.06-37.53,0-75v-2Z"/><path class="cls-2" d="M63.83,50.13H179.68v2q0,37.52,0,75.05a4,4,0,0,1-1.32,3.13Q157,151.7,135.6,173.13a3.82,3.82,0,0,1-3,1.2c-6.34-.06-12.69,0-19-.06a4,4,0,0,0-3.12,1.33c-3.85,3.94-7.73,7.84-11.7,11.66a4.22,4.22,0,0,1-2.62,1.08c-4.11.12-8.23,0-12.57,0V174.3H58.09v-2.13q0-48.93,0-97.86a23.41,23.41,0,0,1,.92-5.26c1.41-5.81,2.88-11.6,4.34-17.4C63.51,51.14,63.68,50.63,63.83,50.13Zm36.63,110c.75-.71,1.18-1.11,1.6-1.52,4.7-4.7,9.43-9.36,14.07-14.12a4.13,4.13,0,0,1,3.29-1.32c9.1.05,18.2,0,27.29.05a4,4,0,0,0,3.14-1.26q8.57-8.7,17.26-17.26a3.71,3.71,0,0,0,1.22-3q0-29.25,0-58.52V61.39H75.2v81.84h25.26Z"/><path class="cls-3" d="M100.46,160.12V143.23H75.2V61.39h93.11V63.2q0,29.26,0,58.52a3.71,3.71,0,0,1-1.22,3q-8.69,8.56-17.26,17.26a4,4,0,0,1-3.14,1.26c-9.09-.05-18.19,0-27.29-.05a4.13,4.13,0,0,0-3.29,1.32c-4.64,4.76-9.37,9.42-14.07,14.12C101.64,159,101.21,159.41,100.46,160.12Zm5.78-76.18V117.7h11.13V83.94Zm31.13,0v33.79h11V83.93Z"/><path class="cls-2" d="M106.24,83.94h11.13V117.7H106.24Z"/><path class="cls-2" d="M137.37,83.93h11v33.79h-11Z"/></g></g></svg>