<svg xmlns="http://www.w3.org/2000/svg" viewBox="0 0 150 150"><defs><style>.cls-1{fill:#fefefd;}.cls-2{fill:#fd0002;}.cls-3{fill:#d32224;}</style></defs><g id="Layer_2" data-name="Layer 2"><g id="Layer_1-2" data-name="Layer 1"><path class="cls-1" d="M150,150H0V0H150ZM25.57,44.63l0,0a13.94,13.94,0,0,0-1.63,3.25,103,103,0,0,0-1.84,10.74,162.31,162.31,0,0,0-.62,23.44,109.35,109.35,0,0,0,1.8,17.78c1.23,5.9,5.42,10.16,11.07,11.07a72.4,72.4,0,0,0,8.78,1c10.47.41,20.93.81,31.4,1,7.25.1,14.52-.06,21.77-.39,6.41-.29,12.82-.82,19.2-1.53a13.14,13.14,0,0,0,11.28-10.22A79.11,79.11,0,0,0,128.56,86c.17-3.2.2-6.42.29-9.63V73.23c-.07-2.65-.08-5.29-.22-7.94a86.35,86.35,0,0,0-1.84-15.86A13.23,13.23,0,0,0,115.48,39c-5.15-.65-10.34-1.13-15.53-1.38C86,36.94,72,36.88,58,37.32a218.69,218.69,0,0,0-22.29,1.45C31.53,39.34,28,41.05,25.57,44.63Z"/><path class="cls-2" d="M128.85,73.23v3.14c-.11.15-.31.28-.32.43-.22,3.32-.38,6.65-.62,10-.19,2.48-.45,5-.73,7.44-.16,1.43-.49,2.84-.63,4.27a10.83,10.83,0,0,1-1.86,5.65,18.51,18.51,0,0,1-2.47,3,23.75,23.75,0,0,1-3.73,2.49,6,6,0,0,1-1.84.58c-1.15.24-2.3.45-3.46.63-1.61.26-3.22.56-4.84.69-1.36.11-2.74-.07-4.11,0-3.15.19-6.3.53-9.46.65-3.77.16-7.55.18-11.32.21s-7.59,0-11.39,0c-2.21,0-4.43-.13-6.64-.18-5.85-.14-11.71-.27-17.56-.42-1.55,0-3.11-.08-4.65-.23-2.68-.28-5.38-.52-8-1A19,19,0,0,1,30.37,109c-.75-.36-2-.64-1.83-1.83-.41-.11-.9-.08-1-.28-.67-1.16-1.78-1.93-2.41-3.17a17.44,17.44,0,0,1-1.57-4.82,73.61,73.61,0,0,1-1.05-8.37c-.29-3.62-.55-7.25-.58-10.87-.06-5.3.09-10.6.17-15.89,0-1.35.13-2.71.22-4.06.06-1,.12-2,.27-2.95.27-1.84.52-3.7.93-5.52.34-1.52.9-3,1.37-4.5.21-.69.44-1.38.66-2.07l0,0c.26-.06.61,0,.79-.19.77-.68,1.48-1.44,2.25-2.13a10.72,10.72,0,0,1,6.11-2.73c1.2-.14,2.4-.35,3.6-.54s2.5-.54,3.76-.62c3.36-.2,6.72-.3,10.09-.42,3.91-.15,7.82-.31,11.73-.39,3.4-.06,6.8,0,10.2,0q6.33.06,12.66.2c4.26.09,8.51.26,12.77.39,2.74.08,5.49.12,8.23.22a15.87,15.87,0,0,1,2,.28c1.32.22,2.62.54,3.94.68a14.72,14.72,0,0,1,7.54,2.69,15.23,15.23,0,0,1,4.5,5.72,6.2,6.2,0,0,1,.64,2.83,2.85,2.85,0,0,0,.37,1.85,2,2,0,0,1,.31.73c.16,1.24.31,2.48.42,3.72.07,1,0,2,.12,2.92.19,1.92.53,3.82.64,5.75s0,3.84.06,5.76A8.16,8.16,0,0,0,128.85,73.23Zm-55.67-11a1.33,1.33,0,0,1-2.09.06,19.89,19.89,0,0,0-2.69-1.48c-.64-.37-1.26-.78-1.89-1.16a13,13,0,0,0-1.62-.92c-.71-.31-1.23.36-1.23,1.53,0,9.28,0,18.56,0,27.84,0,1.26.14,2.53.22,3.89.95-.66,1.65-1.51,2.46-1.64,1.1-.17,1.62-.94,2.42-1.41,2.6-1.55,5.21-3.09,7.88-4.5.82-.44,1.61-1.59,2.69-.63.16-.43.19-.94.44-1.13a15.33,15.33,0,0,1,2-1c.81-.42,1.65-.8,2.43-1.26,1.24-.73,2.42-1.55,3.67-2.27s2.62-1.4,3.91-2.12c.84-.48.87-1.09.18-1.72a4.71,4.71,0,0,1-.67-1,3.88,3.88,0,0,1-2.5-.93c-2.07-1.31-4.28-2.4-6.44-3.58-.37-.21-.78-.36-1.14-.59-1.3-.8-2.56-1.68-3.89-2.43s-2.82-1.44-4.21-2.14ZM65.63,91.57l-.38.1a5.79,5.79,0,0,0,.25.57.48.48,0,0,0,.23-.07C65.71,92,65.67,91.77,65.63,91.57Z"/><path class="cls-3" d="M25.53,44.68c-.22.69-.45,1.38-.66,2.07-.47,1.5-1,3-1.37,4.5-.41,1.82-.66,3.68-.93,5.52-.15,1-.21,2-.27,2.95-.09,1.35-.19,2.71-.22,4.06-.08,5.29-.23,10.59-.17,15.89,0,3.62.29,7.25.58,10.87a73.61,73.61,0,0,0,1.05,8.37,17.44,17.44,0,0,0,1.57,4.82c.63,1.24,1.74,2,2.41,3.17.12.2.61.17,1,.28-.16,1.19,1.08,1.47,1.83,1.83a19,19,0,0,0,4.82,1.56c2.65.48,5.35.72,8,1,1.54.15,3.1.19,4.65.23,5.85.15,11.71.28,17.56.42,2.21,0,4.43.16,6.64.18,3.8,0,7.59,0,11.39,0s7.55,0,11.32-.21c3.16-.12,6.31-.46,9.46-.65,1.37-.07,2.75.11,4.11,0,1.62-.13,3.23-.43,4.84-.69,1.16-.18,2.31-.39,3.46-.63a6,6,0,0,0,1.84-.58,23.75,23.75,0,0,0,3.73-2.49,18.51,18.51,0,0,0,2.47-3,10.83,10.83,0,0,0,1.86-5.65c.14-1.43.47-2.84.63-4.27.28-2.48.54-5,.73-7.44.24-3.32.4-6.65.62-10,0-.15.21-.28.32-.43-.09,3.21-.12,6.43-.29,9.63a79.11,79.11,0,0,1-1.82,14.78A13.14,13.14,0,0,1,115.46,111c-6.38.71-12.79,1.24-19.2,1.53-7.25.33-14.52.49-21.77.39-10.47-.14-20.93-.54-31.4-1a72.4,72.4,0,0,1-8.78-1c-5.65-.91-9.84-5.17-11.07-11.07a109.35,109.35,0,0,1-1.8-17.78,162.31,162.31,0,0,1,.62-23.44A103,103,0,0,1,23.9,47.93,13.94,13.94,0,0,1,25.53,44.68Z"/><path class="cls-3" d="M128.85,73.23a8.16,8.16,0,0,1-.51-1.89c-.07-1.92.06-3.85-.06-5.76s-.45-3.83-.64-5.75c-.1-1,0-1.95-.12-2.92-.11-1.24-.26-2.48-.42-3.72a2,2,0,0,0-.31-.73,2.85,2.85,0,0,1-.37-1.85,6.2,6.2,0,0,0-.64-2.83,15.23,15.23,0,0,0-4.5-5.72,14.72,14.72,0,0,0-7.54-2.69c-1.32-.14-2.62-.46-3.94-.68a15.87,15.87,0,0,0-2-.28c-2.74-.1-5.49-.14-8.23-.22-4.26-.13-8.51-.3-12.77-.39s-8.44-.16-12.66-.2c-3.4,0-6.8-.05-10.2,0-3.91.08-7.82.24-11.73.39-3.37.12-6.73.22-10.09.42-1.26.08-2.51.42-3.76.62s-2.4.4-3.6.54a10.72,10.72,0,0,0-6.11,2.73c-.77.69-1.48,1.45-2.25,2.13-.18.16-.53.13-.79.19,2.45-3.58,6-5.29,10.16-5.86A218.69,218.69,0,0,1,58,37.32c14-.44,28-.38,41.93.3,5.19.25,10.38.73,15.53,1.38a13.23,13.23,0,0,1,11.31,10.43,86.35,86.35,0,0,1,1.84,15.86C128.77,67.94,128.78,70.58,128.85,73.23Z"/><path class="cls-3" d="M73.18,62.26l-.09,1.33c1.39.7,2.83,1.36,4.21,2.14s2.59,1.63,3.89,2.43c.36.23.77.38,1.14.59,2.16,1.18,4.37,2.27,6.44,3.58a3.88,3.88,0,0,0,2.5.93,4.71,4.71,0,0,0,.67,1c.69.63.66,1.24-.18,1.72-1.29.72-2.63,1.38-3.91,2.12s-2.43,1.54-3.67,2.27c-.78.46-1.62.84-2.43,1.26a15.33,15.33,0,0,0-2,1c-.25.19-.28.7-.44,1.13-1.08-1-1.87.19-2.69.63-2.67,1.41-5.28,3-7.88,4.5-.8.47-1.32,1.24-2.42,1.41-.81.13-1.51,1-2.46,1.64-.08-1.36-.22-2.63-.22-3.89,0-9.28,0-18.56,0-27.84,0-1.17.52-1.84,1.23-1.53a13,13,0,0,1,1.62.92c.63.38,1.25.79,1.89,1.16a19.89,19.89,0,0,1,2.69,1.48A1.33,1.33,0,0,0,73.18,62.26Zm-9-3.21V91l28-16Z"/><path class="cls-3" d="M65.63,91.57c0,.2.08.4.1.6a.48.48,0,0,1-.23.07,5.79,5.79,0,0,1-.25-.57Z"/><path class="cls-1" d="M64.17,59.05l28,16-28,16Z"/></g></g></svg>