<svg xmlns="http://www.w3.org/2000/svg" viewBox="0 0 512 512"><defs><style>.cls-1{fill:#fff;}.cls-2{fill:#4687f3;}.cls-3{fill:#fdc41a;}.cls-4{fill:#19a261;}.cls-5{fill:#e8473a;}.cls-6{fill:#23a567;}.cls-7{fill:#4b8af3;}.cls-8{fill:#3e75de;}.cls-9{fill:#f3cb45;}.cls-10{fill:#c14643;}.cls-11{fill:#45b37f;}.cls-12{fill:#188e59;}.cls-13{fill:#e36b5f;}.cls-14{fill:#4d8cf4;}.cls-15{fill:#fdfdfe;}.cls-16{fill:#528ff4;}.cls-17{fill:#4b8af4;}.cls-18{fill:#fbfcfe;}.cls-19{fill:#fdfefe;}.cls-20{fill:#4178df;}.cls-21{fill:#4d80e1;}.cls-22{fill:#4378de;}.cls-23{fill:#3f75dd;}.cls-24{fill:#ea4c3f;}.cls-25{fill:#cd4c3d;}.cls-26{fill:#20a465;}.cls-27{fill:#219761;}.cls-28{fill:#5385e3;}.cls-29{fill:#487ce1;}</style></defs><g id="Layer_2" data-name="Layer 2"><g id="Layer_1-2" data-name="Layer 1"><path class="cls-1" d="M512,512H0V0H512ZM394.78,140.83l-.25-13c.07-17.25.18-34.51.15-51.76,0-1.74-.85-3.47-1.31-5.21L392,69.81l.18,0c-2.51-5.33-7.26-6-12.36-6h-248a30,30,0,0,0-3,0c-4.59.48-8.31,2.25-10.06,6.89l.16,0-1.32,3.06a13.42,13.42,0,0,0-.44,2.41q0,32.18.1,64.36c-2,.78-4,1.59-6,2.33q-40.45,14.75-80.9,29.5c-7.34,2.69-10,7.19-8.49,13.94.52,1.9.92,3.86,1.59,5.71q25.51,70.14,51.08,140.25l.45,28.6c-.06,25.21-.17,50.43-.11,75.64,0,1.83,1.2,3.67,1.84,5.5,2.67,5.33,7.46,5.9,12.67,5.9q166.64,0,333.25,0c1.17,0,2.56.4,3.46-.09,3.16-1.77,6.15-3.84,9.21-5.79.66-2.82,1.85-5.64,1.89-8.47.23-19.06.22-38.13.29-57.18l12.34-46.53q14.12-52.5,28.2-105c4.12-15.41,8-30.86,12-46.29,1.62-6.57-1.2-11.94-7.74-13.88-8.28-2.46-16.66-4.57-25-6.85Z"/><path class="cls-2" d="M76.66,442.11c-.64-1.83-1.83-3.67-1.84-5.5-.06-25.21.05-50.43.11-75.64,13,1.5,26,3.3,39.07,4.4,8.09.69,16.28.4,24.43.38,1.3,0,2.6-.93,3.6-1.31L140,359c13.26,9.33,27.58,14.91,44.2,14.09,24.45-1.21,42.58-11.8,52.82-34.42,1.76-3.88,2.07-8.42,3.06-12.66q.54-3,1.09-6c3.79-1.34,7.75-2.35,11.34-4.1,6.28-3.07,12.34-6.58,18.49-9.91l.12,13.76c0,4.07,3.06,3.21,5.37,3.21q40.15.06,80.3,0c9.8,0,19.61.06,29.42,0,4.12,0,7.74-1.05,7.72-6.31,0-4.67.1-9.33.11-14,0-8.26-1.19-9.42-9.58-9.44L313,292.94a78,78,0,0,1,4.89-7.3c3.9-4.66,8.06-9.12,12.11-13.67l40.34,0c3.1,0,6.21,0,6.46-4.31l-.12.14.48-.83-.5-22.85c.7-.69,1.63-1.25,2.05-2.08,4.57-8.84,9.72-17.45,13.4-26.66,5.83-14.59,10.66-29.58,15.92-44.4,9.61.32,19.69-2.15,28.17,4.82l-.06,0,.85,3.13c.09,2,.25,4,.26,6q.13,37.47.24,75c-.1,2-.28,4-.28,5.95q0,47.35,0,94.71c0,5.31.16,10.61.25,15.92-.07,19.06-.06,38.13-.29,57.19,0,2.83-1.23,5.65-1.89,8.47-6.31,3.28-13.12,2.92-19.94,2.92Q255.92,445,96.52,445C89.77,445,82.88,445.84,76.66,442.11Zm300-72.27,1.26-2.48c0-5,.08-10,.08-15,0-7.05-1.38-8.42-8.48-8.42H276.58c-1.61,0-3.23.14-5.5.25v26.16c1.85.86,3.69,2.47,5.54,2.49,21.74.17,43.48.11,65.22.11,9.8,0,19.59.06,29.38-.05,2.29,0,5.41.54,5.06-3.53l.41.05Z"/><path class="cls-3" d="M74.48,332.37Q48.94,262.25,23.4,192.12c-.67-1.85-1.07-3.81-1.59-5.71.88-5.51,3.49-9.36,9.07-11.37Q94,152.32,157.1,129.32c30-10.92,59.87-22.28,90-32.75,12.85-4.46,24.93-12,39.27-11.45l.24.18,1.41,1.55-.08,0,.95,1.13h0l1.06,2,10.08,25.94,1.08,3.16,16.71,45.34c.23,1.15.45,2.3.67,3.46-2,.06-4,.17-6,.17H156.21q-34.22,0-68.43,0c-7.66,0-12.87,4.41-13,11.52-.18,12.47.07,25,.14,37.44-.08,10.11-.23,20.22-.22,30.33,0,20.23.15,40.46.23,60.69Q74.71,320.16,74.48,332.37Z"/><path class="cls-4" d="M300.06,115.82,290,89.88c-.35-.66-.71-1.31-1.06-2h0c-.32-.38-.63-.76-.95-1.13l.08,0-1.41-1.55-.24-.18c-3.31-3.39-7.36-2.77-11.41-2.1l0-1.14c.63-1.42,1.86-2.88,1.76-4.24C276.45,74,275.6,70.48,275,66.9q49.93,0,99.86-.1c6,0,11.94-.29,17.31,3l-.18,0,1.41,1.06c.46,1.74,1.31,3.47,1.31,5.21,0,17.25-.08,34.51-.15,51.76-2-.31-3.92-.67-5.89-.92-17.27-2.19-34.53-4.43-51.81-6.53-10-1.22-20.09-2.22-30.13-3.32Z"/><path class="cls-5" d="M437.46,259.86q-.12-37.47-.24-75c0-2-.17-4-.26-6-.28-1.05-.56-2.09-.85-3.13l.06,0c-1.58-5.38-5.64-7.51-10.79-7.79s-10.25-.16-15.37-.22c.81-4.19,1.34-8.46,2.61-12.51.37-1.19,2.75-2.23,4.34-2.46a51.8,51.8,0,0,1,8.07,0,18.91,18.91,0,0,1,3.47.26c17.79,4.75,35.59,9.44,53.32,14.39,5.36,1.5,8.06,5.54,8.2,11.17-4,15.43-7.93,30.88-12,46.29q-14,52.51-28.2,105c-.34-2.61-.61-5.22-1-7.81-3-18.31-5.94-36.62-9-54.91A57.45,57.45,0,0,0,437.46,259.86Z"/><path class="cls-6" d="M117.23,140.64q-.06-32.17-.1-64.36a13.42,13.42,0,0,1,.44-2.41l1.32-3.06-.16,0c3.81-1.3,7.59-3.64,11.42-3.73,17.6-.39,35.21-.15,52.81-.14,1.29,3.78,2.61,7.55,3.85,11.34,3.32,10.1,2.3,20.37,1.14,30.65-13.14,6-26.33,11.92-39.42,18-3.66,1.71-7.06,4-10.58,6l-.2.17-.23-.12-1.54.78a1,1,0,0,1-.89.21l-2.11.85Z"/><path class="cls-7" d="M74.48,332.37q.24-12.21.47-24.42l42,7,10,26.75,1.25,2.19-.25-.14,1.32,1.15.65.9,1.3,2.07-.22-.18,1.15,1.19v-.21c.26,1.09.51,2.19.77,3.29-.14,4.7,1.57,6.42,7,7h0l2.08,5.48c-1,.38-2.3,1.3-3.6,1.31-8.15,0-16.34.31-24.43-.38-13-1.1-26-2.9-39.07-4.4Z"/><path class="cls-8" d="M76.66,442.11c6.22,3.73,13.11,2.88,19.86,2.88q159.39,0,318.79,0c6.82,0,13.63.36,19.94-2.92-3.06,1.95-6.05,4-9.21,5.79-.9.49-2.29.09-3.46.09Q256,448,89.33,448C84.12,448,79.33,447.44,76.66,442.11Z"/><path class="cls-9" d="M135.09,134a1,1,0,0,0,.89-.21l1.54-.78.23.12.2-.17c1.74-.52,3.5-1,5.21-1.58q39.09-14.19,78.18-28.45C239.25,96.33,257.11,89.65,275,83c4.05-.67,8.1-1.29,11.41,2.1-14.34-.51-26.42,7-39.27,11.45-30.17,10.47-60,21.83-90,32.75Q94,152.27,30.88,175c-5.58,2-8.19,5.86-9.07,11.37-1.51-6.75,1.15-11.25,8.49-13.94q40.44-14.79,80.9-29.5c2-.74,4-1.55,6-2.33L133,134.8Z"/><path class="cls-10" d="M437.46,259.86a57.45,57.45,0,0,1,2.26,7.34c3.08,18.29,6,36.6,9,54.91.42,2.59.69,5.2,1,7.81q-6.16,23.26-12.34,46.53c-.09-5.32-.25-10.62-.25-15.93q0-47.36,0-94.71C437.18,263.83,437.36,261.84,437.46,259.86Z"/><path class="cls-11" d="M183,66.91c-17.6,0-35.21-.25-52.81.14-3.83.09-7.61,2.43-11.42,3.73,1.75-4.64,5.47-6.41,10.06-6.89a30,30,0,0,1,3,0h248c5.1,0,9.85.63,12.36,6-5.37-3.33-11.32-3.06-17.31-3Q324.9,67,275,66.9Z"/><path class="cls-12" d="M306.7,117.07c10,1.1,20.1,2.1,30.13,3.32,17.28,2.1,34.54,4.34,51.81,6.53,2,.25,3.93.61,5.89.92q.14,6.49.25,13c-9-2.33-18-4.55-27-7C347.39,128.31,327.05,122.66,306.7,117.07Z"/><path class="cls-13" d="M306.7,117.07c20.35,5.59,40.69,11.24,61.06,16.77,9,2.44,18,4.66,27,7l62.5,17.08c8.34,2.28,16.72,4.39,25,6.85,6.54,1.94,9.36,7.31,7.74,13.88-.14-5.63-2.84-9.67-8.2-11.17-17.73-4.95-35.53-9.64-53.32-14.39a18.91,18.91,0,0,0-3.47-.26c-4.08-1.32-8.11-2.82-12.24-3.92Q362.39,135.37,312,122l-10.81-3-1.08-3.16Z"/><path class="cls-11" d="M118.89,70.81l-1.32,3.06Z"/><path class="cls-11" d="M393.37,70.87,392,69.81Z"/><path class="cls-14" d="M117,315l-42-7c-.08-20.23-.2-40.46-.23-60.69,0-10.11.14-20.22.22-30.33a53,53,0,0,1,5.77,1.49c22.47,8.31,45.47,10.73,69.11,6.47,33.19-6,60.22-22.39,81-48.76,3.26-4.13,6.36-5.32,11.21-5.29,30.3.17,60.61.1,90.91.11-7.23,21.83-19.13,41.07-32.82,59.34-2.93,3.9-5.47,8.09-8.19,12.15H271.06v26.3c0,4.07,3.12,3.17,5.43,3.17,17.83.07,35.65,0,53.48.06-4.05,4.55-8.21,9-12.11,13.67a78,78,0,0,0-4.89,7.3c-12.41.08-24.82.26-37.23.17-3.34,0-4.9.8-4.6,4.42A79,79,0,0,1,271,306c-6.15,3.33-12.21,6.84-18.49,9.91-3.59,1.75-7.55,2.76-11.34,4.1V296.28H181V320c1.56,1,3.09,2.79,4.67,2.84,9.47.29,19,.16,28.44.18a25.44,25.44,0,0,1-11.76,16c-13.48,8.3-27.54,8.89-41,.57-14.14-8.75-20.13-22-18.06-38.68a18.74,18.74,0,0,0,1.94-3.22c5-13.58,13.81-23.07,28.34-26.06,10.15-2.1,19.78-.66,28.5,5.55,1.51,1.07,4.87,1.84,5.83,1,5.48-4.83,10.54-10.15,15.59-15.44.39-.4-.32-1.85-.52-2.82-1.82-1.83-3.4-4-5.51-5.45-22.77-15.15-46.62-16.65-69.83-2.32C124.69,266.28,113.73,287.47,117,315Z"/><path class="cls-15" d="M143.25,300.93c-2.07,16.67,3.92,29.93,18.06,38.68,13.46,8.32,27.52,7.73,41-.57a25.44,25.44,0,0,0,11.76-16c2.18-3.34-.34-3-2.38-3q-15.36,0-30.73,0v-23.7h60.16V320q-.56,3-1.09,6c-.31.77-.66,1.53-.92,2.32-9.12,28.29-32.18,43.83-61.84,42.08-16-.95-29.42-7.37-41.24-17.75l-.74-.73c-1-1.07-2.06-2.15-3.1-3.22v.21l-1.15-1.19.22.18L130,345.8l-.65-.9L128,343.75l.25.14L127,341.7,117,315c-3.22-27.48,7.74-48.67,30.64-62.79,23.21-14.33,47.06-12.83,69.83,2.32,2.11,1.41,3.69,3.62,5.51,5.45l-16.49,17.76C178.56,255.53,146.17,275.32,143.25,300.93Z"/><path class="cls-16" d="M333,171c-30.3,0-60.61.06-90.91-.11-4.85,0-7.95,1.16-11.21,5.29C210,202.5,183,218.9,149.82,224.89c-23.64,4.26-46.64,1.84-69.11-6.47a53,53,0,0,0-5.77-1.49c-.07-12.48-.32-25-.14-37.44.11-7.11,5.32-11.5,13-11.52q34.22-.06,68.43,0H312.54c2,0,4-.11,6-.17l91.49,0c5.12.06,10.26,0,15.37.22s9.21,2.41,10.79,7.79c-8.48-7-18.56-4.5-28.17-4.82Z"/><path class="cls-17" d="M333,171h75c-5.26,14.82-10.09,29.81-15.92,44.4-3.68,9.21-8.83,17.82-13.4,26.66-.42.83-1.35,1.39-2.05,2.08-2.56-.46-5.12-1.31-7.69-1.33-25.66-.18-51.32-.23-77-.32,2.72-4.06,5.26-8.25,8.19-12.15C313.85,212,325.75,192.78,333,171Z"/><path class="cls-18" d="M271,306a79,79,0,0,0,.19-8.42c-.3-3.62,1.26-4.44,4.6-4.42,12.41.09,24.82-.09,37.23-.17l71.44.23c8.39,0,9.59,1.18,9.58,9.44,0,4.66-.07,9.32-.11,14-2.76,1.11-5.5,3.18-8.27,3.21-29.22.24-58.44.17-87.66.14-9,0-17.92-.16-26.88-.24Z"/><path class="cls-18" d="M271.08,370.37V344.21c2.27-.11,3.89-.25,5.5-.25H369.5c7.1,0,8.48,1.37,8.48,8.42,0,5-.05,10-.08,15l-1.26,2.47.05-.4-.4-.05c-2.59.44-5.18,1.24-7.77,1.25q-44.49.14-89,.05C276.73,370.69,273.91,370.48,271.08,370.37Z"/><path class="cls-19" d="M292,242.44c25.65.09,51.31.14,77,.32,2.57,0,5.13.87,7.69,1.33q.25,11.41.5,22.85a1.14,1.14,0,0,0-.48.83l.12-.14c-2.38.51-4.76,1.44-7.15,1.44q-46.81.15-93.62.06c-1.65,0-3.3-.25-4.94-.39v-26.3Z"/><path class="cls-20" d="M271.07,319.71c9,.08,17.92.23,26.88.24,29.22,0,58.44.1,87.66-.14,2.77,0,5.51-2.1,8.27-3.21,0,5.26-3.6,6.27-7.72,6.31-9.81.1-19.62,0-29.42,0q-40.15,0-80.3,0C274.13,322.92,271.06,323.78,271.07,319.71Z"/><path class="cls-21" d="M136,352.62c11.82,10.38,25.25,16.8,41.24,17.75,29.66,1.75,52.72-13.79,61.84-42.08.26-.79.61-1.55.92-2.32-1,4.24-1.3,8.78-3.06,12.66-10.24,22.62-28.37,33.21-52.82,34.42-16.62.82-30.94-4.76-44.2-14.09h0Z"/><path class="cls-22" d="M271.06,268.74c1.64.14,3.29.39,4.94.39q46.8,0,93.62-.06c2.39,0,4.77-.93,7.15-1.44-.25,4.29-3.36,4.31-6.46,4.31L330,272c-17.83,0-35.65,0-53.48-.06C274.18,271.91,271.1,272.81,271.06,268.74Z"/><path class="cls-23" d="M271.08,370.37c2.83.11,5.65.32,8.47.32q44.49,0,89-.05c2.59,0,5.18-.81,7.77-1.25.34,4.07-2.78,3.5-5.07,3.53-9.79.11-19.58.05-29.38.05-21.74,0-43.48.06-65.22-.11C274.77,372.84,272.93,371.23,271.08,370.37Z"/><path class="cls-16" d="M436.11,175.81c.29,1,.57,2.08.85,3.13C436.68,177.89,436.4,176.85,436.11,175.81Z"/><path class="cls-23" d="M376.64,369.84l1.26-2.47Z"/><path class="cls-22" d="M376.65,267.77a1.14,1.14,0,0,1,.48-.83Z"/><path class="cls-24" d="M410,167.76l-91.49,0c-.22-1.16-.44-2.31-.67-3.46-.13-1.82-.15-3.65-.41-5.44Q314.74,140.42,312,122q50.42,13.44,100.84,26.93c4.13,1.1,8.16,2.6,12.24,3.92a51.8,51.8,0,0,0-8.07,0c-1.59.23-4,1.27-4.34,2.46C411.35,159.3,410.82,163.57,410,167.76Z"/><path class="cls-25" d="M312,122q2.76,18.45,5.49,36.91c.26,1.79.28,3.62.41,5.44L301.14,119Z"/><path class="cls-9" d="M288.92,87.92c.35.65.71,1.3,1.06,2Z"/><path class="cls-9" d="M286.65,85.3l1.41,1.55Z"/><path class="cls-9" d="M288,86.8c.32.37.63.75.95,1.13Z"/><path class="cls-26" d="M183,66.91h92c.63,3.58,1.48,7.13,1.76,10.74.1,1.36-1.13,2.82-1.76,4.24-4.61-5.75-9.53-7.42-15.1-4.92-11.35,5.12-22.64,10.4-34,15.46-12.59,5.58-25.26,11-37.9,16.48,1.16-10.28,2.18-20.55-1.14-30.65C185.57,74.46,184.25,70.69,183,66.91Z"/><path class="cls-27" d="M188,108.9c12.64-5.49,25.31-10.9,37.9-16.48,11.38-5.06,22.67-10.34,34-15.46,5.57-2.5,10.49-.83,15.1,4.92L275,83c-17.89,6.63-35.75,13.31-53.66,19.86q-39.08,14.31-78.18,28.45c-1.71.62-3.47,1.06-5.21,1.58,3.52-2,6.92-4.27,10.58-6C161.62,120.82,174.81,114.89,188,108.9Z"/><path class="cls-27" d="M135.09,134l-2.11.85Z"/><path class="cls-27" d="M137.52,133l-1.54.78Z"/><path class="cls-2" d="M136,352.62,140,359c-5.42-.58-7.13-2.3-7-7l2.33-.07Z"/><path class="cls-21" d="M135.29,351.89,133,352c-.26-1.1-.51-2.2-.77-3.29C133.23,349.74,134.26,350.82,135.29,351.89Z"/><path class="cls-21" d="M127,341.7l1.25,2.19Z"/><path class="cls-21" d="M130,345.8l1.3,2.07Z"/><path class="cls-21" d="M128,343.75l1.32,1.15Z"/><path class="cls-21" d="M131.05,347.69l1.15,1.19Z"/><path class="cls-28" d="M143.25,300.93c2.92-25.61,35.31-45.4,63.19-23.24l16.49-17.76c.2,1,.91,2.42.52,2.82-5,5.29-10.11,10.61-15.59,15.44-1,.85-4.32.08-5.83-1-8.72-6.21-18.35-7.65-28.5-5.55-14.53,3-23.38,12.48-28.34,26.06A18.74,18.74,0,0,1,143.25,300.93Z"/><path class="cls-29" d="M181,320q15.36,0,30.73,0c2,0,4.56-.31,2.38,3-9.48,0-19,.11-28.44-.18C184.05,322.77,182.52,321,181,320Z"/></g></g></svg>