<svg xmlns="http://www.w3.org/2000/svg" viewBox="0 0 171 171"><defs><style>.cls-1{fill:#fefdfe;}.cls-2{fill:#fa0652;}.cls-3{fill:#03f4ee;}</style></defs><g id="Layer_2" data-name="Layer 2"><g id="Layer_1-2" data-name="Layer 1"><path d="M171,171H0V0H171ZM115.65,50.59l-.42-.22,0,0a10.32,10.32,0,0,0-.37-1.11c-1.23-2.75-2.69-5.42-3.64-8.26a52,52,0,0,1-1.39-7.26h-4.93a.59.59,0,0,0-.17-.1l-.52-4.5H85.09v5q0,34.31,0,68.61c0,8.29-5.34,14.65-13.45,15.61-2.55.3-5.23-.52-7.85-.83l0,0-.34-.31-.44-.46-.27-.23,0,0c-.18-.39-.35-.8-.56-1.18a15.21,15.21,0,0,1,8.22-21.71,15.89,15.89,0,0,1,9.61-.22c0-6.43,0-12.7,0-19,0-.33-.75-.91-1.18-.94-1.49-.11-3,0-4.49,0l-.18-.1V69.06a30.4,30.4,0,0,0-12,.57c-13.59,3.53-22.58,12-25.85,25.69s.9,25.09,11.27,34.38a9.77,9.77,0,0,0,1.5.9h0l.35.46,2.18,1.81.52.39,0,0a1.4,1.4,0,0,0,.22.42A33.9,33.9,0,0,0,73,142.56,32.16,32.16,0,0,0,90.78,139c12.51-6.57,19-17.06,19.32-31.12.25-11.85,0-23.71,0-35.57v-2c7.71,6,16.44,7.74,25.64,8.61V59.75L130.15,59l-.22-4a36.06,36.06,0,0,1-12.7-3l0,0-.42-.34-.74-.76-.36-.38Z"/><path class="cls-1" d="M63,116.77l.44.45.34.32,0,0c2.93,4.49,9.81,6.79,15.6,5.21,7-1.91,11.37-7.83,11.38-15.41q0-35.73,0-71.47V33.66h14a.59.59,0,0,1,.17.1,24.17,24.17,0,0,0,5.72,12.71,38,38,0,0,0,4.61,3.92l0,0,.42.22h.08l.36.38.74.76.42.34,0,0c.73.74,1.4,1.55,2.19,2.21a26.59,26.59,0,0,0,10.51,4.85v15c-9.31-.92-18.08-2.72-25.59-8.7,0,.5,0,.71,0,.93q0,17.85,0,35.72a41.1,41.1,0,0,1-.2,5.33,34.52,34.52,0,0,1-50.5,26.37,10.46,10.46,0,0,0-1.49-.51l0,0-.52-.39-2.18-1.81-.35-.46h0c-.54-.82-1-1.67-1.62-2.45-9.39-12.59-8.45-31.34,2.12-43A35.16,35.16,0,0,1,74.15,73.41l.18.1v15c-.65-.1-1-.13-1.3-.19a15.24,15.24,0,0,0-12.66,26.87,16.49,16.49,0,0,0,2.41,1.33l0,0Z"/><path class="cls-2" d="M52.09,133.23a10.46,10.46,0,0,1,1.49.51,34.52,34.52,0,0,0,50.5-26.37,41.1,41.1,0,0,0,.2-5.33q0-17.87,0-35.72c0-.22,0-.43,0-.93,7.51,6,16.28,7.78,25.59,8.7v-15a.65.65,0,0,1,.22-.11l5.61.75V78.9c-9.2-.87-17.93-2.63-25.64-8.61v2c0,11.86.23,23.72,0,35.57-.31,14.06-6.81,24.55-19.32,31.12A32.16,32.16,0,0,1,73,142.56a33.9,33.9,0,0,1-20.65-8.91A1.4,1.4,0,0,1,52.09,133.23Z"/><path class="cls-3" d="M104.75,33.66h-14v2.18q0,35.73,0,71.47c0,7.58-4.4,13.5-11.38,15.41-5.79,1.58-12.67-.72-15.6-5.21,2.62.31,5.3,1.13,7.85.83,8.11-1,13.44-7.32,13.45-15.61q0-34.31,0-68.61v-5h19.14Z"/><path class="cls-3" d="M74.15,73.41A35.16,35.16,0,0,0,49.57,85.18c-10.57,11.63-11.51,30.38-2.12,43,.59.78,1.08,1.63,1.62,2.45a9.77,9.77,0,0,1-1.5-.9C37.2,120.41,33.06,108.85,36.3,95.32S48.56,73.16,62.15,69.63a30.4,30.4,0,0,1,12-.57Z"/><path class="cls-2" d="M62.78,116.56a16.49,16.49,0,0,1-2.41-1.33A15.24,15.24,0,0,1,73,88.36c.32.06.65.09,1.3.19v-15c1.49,0,3-.08,4.49,0,.43,0,1.18.61,1.18.94.07,6.27,0,12.54,0,19a15.89,15.89,0,0,0-9.61.22,15.21,15.21,0,0,0-8.22,21.71C62.43,115.76,62.6,116.17,62.78,116.56Z"/><path class="cls-2" d="M115.25,50.39a38,38,0,0,1-4.61-3.92,24.17,24.17,0,0,1-5.72-12.71h4.93A52,52,0,0,0,111.24,41c1,2.84,2.41,5.51,3.64,8.26A10.32,10.32,0,0,1,115.25,50.39Z"/><path class="cls-3" d="M130.15,59a.65.65,0,0,0-.22.11,26.59,26.59,0,0,1-10.51-4.85c-.79-.66-1.46-1.47-2.19-2.21a36.06,36.06,0,0,0,12.7,3Z"/><path class="cls-2" d="M116.09,51l-.36-.38Z"/><path class="cls-2" d="M115.65,50.59l-.42-.22Z"/><path class="cls-3" d="M117.25,52.07l-.42-.34Z"/><path class="cls-2" d="M63,116.77l-.27-.23Z"/><path class="cls-3" d="M63.81,117.54l-.34-.32Z"/><path class="cls-3" d="M49.06,130.59l.35.46Z"/><path class="cls-2" d="M51.59,132.86l.52.39Z"/></g></g></svg>