<svg xmlns="http://www.w3.org/2000/svg" viewBox="0 0 128.5 129"><defs><style>.cls-1{fill:#5865f2;}.cls-2{fill:#fff;}</style></defs><g id="Layer_2" data-name="Layer 2"><g id="Layer_1-2" data-name="Layer 1"><rect class="cls-1" width="128.5" height="129"/><path class="cls-2" d="M95.19,36.09A73.8,73.8,0,0,0,77,30.45a.3.3,0,0,0-.3.14,49.85,49.85,0,0,0-2.26,4.65,67.79,67.79,0,0,0-20.41,0,47.79,47.79,0,0,0-2.3-4.65.29.29,0,0,0-.29-.14,73.67,73.67,0,0,0-18.17,5.64.29.29,0,0,0-.12.1C21.6,53.48,18.43,70.35,20,87a.28.28,0,0,0,.12.21A74,74,0,0,0,42.39,98.48a.28.28,0,0,0,.32-.1A53.1,53.1,0,0,0,47.27,91a.28.28,0,0,0-.13-.38h0a49.81,49.81,0,0,1-7-3.31.29.29,0,0,1-.1-.4.18.18,0,0,1,.07-.08c.47-.35.94-.71,1.38-1.08a.28.28,0,0,1,.29,0,52.81,52.81,0,0,0,44.87,0,.28.28,0,0,1,.29,0c.45.37.91.74,1.39,1.09a.28.28,0,0,1,.06.4l-.08.08a45.94,45.94,0,0,1-7,3.31.28.28,0,0,0-.16.37s0,0,0,0a59.89,59.89,0,0,0,4.56,7.41.29.29,0,0,0,.31.11,73.69,73.69,0,0,0,22.32-11.27.3.3,0,0,0,.12-.21c1.86-19.25-3.12-36-13.2-50.81a.2.2,0,0,0-.11-.11ZM49.45,76.86c-4.4,0-8-4-8-9s3.55-9,8-9,8.09,4.07,8,9S53.92,76.86,49.45,76.86Zm29.66,0c-4.4,0-8-4-8-9s3.55-9,8-9,8.1,4.07,8,9S83.62,76.86,79.11,76.86Z"/></g></g></svg>