<svg xmlns="http://www.w3.org/2000/svg" xmlns:xlink="http://www.w3.org/1999/xlink" viewBox="0 0 103.92 103.5"><defs><style>.cls-1{fill:url(#linear-gradient);}.cls-2{fill:#fff;}</style><linearGradient id="linear-gradient" x1="51.96" x2="51.96" y2="103.5" gradientUnits="userSpaceOnUse"><stop offset="0" stop-color="#61fd7d"/><stop offset="1" stop-color="#2bb826"/></linearGradient></defs><g id="Layer_2" data-name="Layer 2"><g id="Layer_1-2" data-name="Layer 1"><rect class="cls-1" width="103.92" height="103.5"/><g id="logo"><path class="cls-2" d="M75.47,27.49a33.06,33.06,0,0,0-52,39.88L18.73,84.5l17.53-4.6a33.08,33.08,0,0,0,15.8,4h0A33.07,33.07,0,0,0,75.47,27.49ZM52.08,78.34h0a27.38,27.38,0,0,1-14-3.83l-1-.59-10.4,2.73,2.78-10.14-.65-1A27.48,27.48,0,1,1,52.08,78.34ZM67.15,57.77c-.82-.42-4.89-2.41-5.64-2.69s-1.31-.41-1.86.41S57.51,58.18,57,58.73s-1,.62-1.79.21a22.59,22.59,0,0,1-6.64-4.1A24.92,24.92,0,0,1,44,49.12c-.48-.83,0-1.28.36-1.69s.83-1,1.24-1.45a5.51,5.51,0,0,0,.83-1.37,1.5,1.5,0,0,0-.07-1.45c-.21-.41-1.86-4.48-2.55-6.13s-1.35-1.4-1.86-1.42-1,0-1.58,0a3.06,3.06,0,0,0-2.2,1,9.27,9.27,0,0,0-2.89,6.89c0,4.07,3,8,3.37,8.55s5.83,8.89,14.11,12.47a47.48,47.48,0,0,0,4.71,1.74,11.37,11.37,0,0,0,5.21.33c1.59-.24,4.89-2,5.57-3.93a7,7,0,0,0,.49-3.93C68.53,58.39,68,58.18,67.15,57.77Z"/></g></g></g></svg>