<svg xmlns="http://www.w3.org/2000/svg" viewBox="0 0 217.36 56.48"><defs><style>.cls-1{fill:#fff;}</style></defs><g id="Layer_2" data-name="Layer 2"><g id="Layer_1-2" data-name="Layer 1"><path class="cls-1" d="M92.57,8.83a1.3,1.3,0,0,1-1.2-.9,2.57,2.57,0,0,0-.76-1.1A4,4,0,0,0,88,6.12a5.11,5.11,0,0,0-1.8.26,2.15,2.15,0,0,0-1,.71,1.7,1.7,0,0,0-.35,1A1.59,1.59,0,0,0,85,9a2,2,0,0,0,.64.68,4.78,4.78,0,0,0,1.11.54,12.54,12.54,0,0,0,1.61.44l2.15.46a16.25,16.25,0,0,1,3.72,1.21,9.09,9.09,0,0,1,2.53,1.77,6.6,6.6,0,0,1,1.45,2.28,8.26,8.26,0,0,1,.48,2.77,7.43,7.43,0,0,1-1.29,4.37,7.94,7.94,0,0,1-3.65,2.72,15.61,15.61,0,0,1-5.7.93,15.91,15.91,0,0,1-6-1A8.28,8.28,0,0,1,78.19,23a8.79,8.79,0,0,1-1.34-4,1.27,1.27,0,0,1,1.25-1.39h4.36a1.27,1.27,0,0,1,1.22,1,3.38,3.38,0,0,0,.45,1,3.29,3.29,0,0,0,1.52,1.24A5.88,5.88,0,0,0,88,21.3a5.48,5.48,0,0,0,1.9-.28,2.52,2.52,0,0,0,1.17-.78,1.86,1.86,0,0,0,.41-1.13,1.69,1.69,0,0,0-.39-1.06,3.46,3.46,0,0,0-1.24-.82,13.48,13.48,0,0,0-2.31-.68L84.91,16a12,12,0,0,1-5.48-2.53,6.09,6.09,0,0,1-2-4.84,7.18,7.18,0,0,1,1.33-4.36,8.79,8.79,0,0,1,3.75-2.92,13.59,13.59,0,0,1,5.5-1,13,13,0,0,1,5.48,1.06,8.27,8.27,0,0,1,3.58,3,7.76,7.76,0,0,1,1.16,3.08A1.25,1.25,0,0,1,97,8.83Z"/><path class="cls-1" d="M119.43,5A8.27,8.27,0,0,0,116,1.8a10.78,10.78,0,0,0-5.1-1.15H100.88A1.25,1.25,0,0,0,99.63,1.9V25.58a1.25,1.25,0,0,0,1.25,1.25h4.61a1.25,1.25,0,0,0,1.25-1.25V19.05h3.93a11.69,11.69,0,0,0,5.24-1.11,8.31,8.31,0,0,0,3.49-3.17,9.21,9.21,0,0,0,1.24-4.87A9.49,9.49,0,0,0,119.43,5Zm-6.68,6.8a3.16,3.16,0,0,1-1.37,1.26,4.67,4.67,0,0,1-2.14.44h-2.5V6.32h2.5a4.8,4.8,0,0,1,2.14.43A3.15,3.15,0,0,1,112.75,8a3.65,3.65,0,0,1,.48,1.92A3.73,3.73,0,0,1,112.75,11.83Z"/><path class="cls-1" d="M146.82,13.74a14.79,14.79,0,0,1-1.7,7.37,11.45,11.45,0,0,1-4.59,4.54,13.59,13.59,0,0,1-6.45,1.54,13.36,13.36,0,0,1-6.46-1.56A11.39,11.39,0,0,1,123,21.08a14.73,14.73,0,0,1-1.69-7.34A14.74,14.74,0,0,1,123,6.37a11.37,11.37,0,0,1,4.58-4.54,14.3,14.3,0,0,1,12.91,0,11.45,11.45,0,0,1,4.59,4.54A14.74,14.74,0,0,1,146.82,13.74Zm-7.32,0a11,11,0,0,0-.62-4,4.75,4.75,0,0,0-4.8-3.29,4.75,4.75,0,0,0-4.8,3.29,11.22,11.22,0,0,0-.62,4,11.22,11.22,0,0,0,.62,4,5.15,5.15,0,0,0,1.83,2.45,5.08,5.08,0,0,0,7.77-2.45A11,11,0,0,0,139.5,13.74Z"/><path class="cls-1" d="M155.4,1.9V25.58a1.25,1.25,0,0,1-1.25,1.25h-4.61a1.25,1.25,0,0,1-1.25-1.25V1.9A1.25,1.25,0,0,1,149.54.65h4.61A1.25,1.25,0,0,1,155.4,1.9Z"/><path class="cls-1" d="M157,25.58V1.9A1.25,1.25,0,0,1,158.22.65h4.61a1.25,1.25,0,0,1,1.25,1.25V21.1h9.33a1.25,1.25,0,0,1,1.25,1.25v3.23a1.25,1.25,0,0,1-1.25,1.25H158.22A1.25,1.25,0,0,1,157,25.58Z"/><path class="cls-1" d="M175.73,25.58V1.9A1.25,1.25,0,0,1,177,.65h16.37A1.25,1.25,0,0,1,194.6,1.9V5.12a1.25,1.25,0,0,1-1.25,1.25H182.84v4.5h9.54a1.25,1.25,0,0,1,1.25,1.25v3.23a1.25,1.25,0,0,1-1.25,1.25h-9.54v4.5H193.3a1.25,1.25,0,0,1,1.25,1.25v3.23a1.25,1.25,0,0,1-1.25,1.25H177A1.25,1.25,0,0,1,175.73,25.58Z"/><path class="cls-1" d="M217.2,25l-4.31-7.93a7.72,7.72,0,0,0,3.21-2.76,8.59,8.59,0,0,0,1.24-4.75,9,9,0,0,0-1.21-4.78,7.93,7.93,0,0,0-3.4-3,11.53,11.53,0,0,0-5.1-1.06H197.57a1.25,1.25,0,0,0-1.25,1.25V25.58a1.25,1.25,0,0,0,1.25,1.25h4.61a1.25,1.25,0,0,0,1.25-1.25V18.19h2.46l4.25,8a1.24,1.24,0,0,0,1.1.67h4.87A1.25,1.25,0,0,0,217.2,25ZM203.43,6.32h2.51a6.16,6.16,0,0,1,2.14.34,2.86,2.86,0,0,1,1.37,1,3.19,3.19,0,0,1,.48,1.83,3.12,3.12,0,0,1-.48,1.81,2.72,2.72,0,0,1-1.37,1,6.45,6.45,0,0,1-2.14.31h-2.51Z"/><path class="cls-1" d="M102.94,54.83,95.12,31.15a1.26,1.26,0,0,0-1.19-.86H86a1.26,1.26,0,0,0-1.19.86L77,54.83a1.26,1.26,0,0,0,1.19,1.65h5a1.25,1.25,0,0,0,1.2-.89l1.24-4.13H94.3l1.24,4.13a1.25,1.25,0,0,0,1.2.89h5A1.26,1.26,0,0,0,102.94,54.83ZM87.27,46.15l2.61-8.65h.2l2.61,8.65Z"/><path class="cls-1" d="M104.19,55.23V31.54a1.25,1.25,0,0,1,1.25-1.25H110a1.25,1.25,0,0,1,1.25,1.25V50.75h9.34A1.25,1.25,0,0,1,121.88,52v3.23a1.25,1.25,0,0,1-1.25,1.25H105.44A1.25,1.25,0,0,1,104.19,55.23Z"/><path class="cls-1" d="M122.94,55.23V31.54a1.25,1.25,0,0,1,1.25-1.25h16.37a1.25,1.25,0,0,1,1.25,1.25v3.23A1.25,1.25,0,0,1,140.56,36H130.05v4.5h9.54a1.25,1.25,0,0,1,1.25,1.25V45a1.25,1.25,0,0,1-1.25,1.25h-9.54v4.5h10.46A1.25,1.25,0,0,1,141.76,52v3.23a1.25,1.25,0,0,1-1.25,1.25H124.19A1.25,1.25,0,0,1,122.94,55.23Z"/><path class="cls-1" d="M164.42,54.63,160.1,46.7a7.66,7.66,0,0,0,3.21-2.76,8.59,8.59,0,0,0,1.25-4.75,9,9,0,0,0-1.22-4.78,7.87,7.87,0,0,0-3.4-3,11.53,11.53,0,0,0-5.1-1.07H144.79a1.25,1.25,0,0,0-1.25,1.25V55.23a1.25,1.25,0,0,0,1.25,1.25h4.61a1.25,1.25,0,0,0,1.25-1.25v-7.4h2.46l4.24,8a1.26,1.26,0,0,0,1.11.67h4.86A1.25,1.25,0,0,0,164.42,54.63ZM150.65,36h2.5a5.89,5.89,0,0,1,2.14.34,2.71,2.71,0,0,1,1.37,1,3.19,3.19,0,0,1,.48,1.83,3.09,3.09,0,0,1-.48,1.8,2.69,2.69,0,0,1-1.37,1,6.41,6.41,0,0,1-2.14.31h-2.5Z"/><path class="cls-1" d="M165.06,34.77V31.54a1.25,1.25,0,0,1,1.25-1.25h20.25a1.25,1.25,0,0,1,1.25,1.25v3.23A1.25,1.25,0,0,1,186.56,36h-6.62V55.23a1.25,1.25,0,0,1-1.25,1.25h-4.51a1.25,1.25,0,0,1-1.25-1.25V36h-6.62A1.25,1.25,0,0,1,165.06,34.77Z"/><path class="cls-1" d="M60.6,41.88,39.16,4.75a9.5,9.5,0,0,0-16.45,0L1.27,41.88A9.5,9.5,0,0,0,9.5,56.13H52.37A9.5,9.5,0,0,0,60.6,41.88Zm-8.23,7.25H9.5a2.5,2.5,0,0,1-2.17-3.75L28.77,8.25a2.5,2.5,0,0,1,4.33,0L54.53,45.38A2.5,2.5,0,0,1,52.37,49.13Z"/></g></g></svg>