<svg xmlns="http://www.w3.org/2000/svg" viewBox="0 0 100 100"><defs><style>.cls-1{fill:#fff;}</style></defs><g id="Layer_2" data-name="Layer 2"><g id="Layer_1-2" data-name="Layer 1"><path d="M2.7,64.61a49.52,49.52,0,0,1,4.23-39H18a19.5,19.5,0,0,1,0,39Z"/><path d="M18,26.11a19,19,0,0,1,0,38H3.07a49,49,0,0,1,4.15-38H18m0-1H6.64a50,50,0,0,0-4.31,40H18a20,20,0,0,0,0-40Z"/><polygon points="64.6 74.61 74.96 51.58 85.32 74.61 64.6 74.61"/><path d="M75,52.8l9.59,21.31H65.37L75,52.8m0-2.44L63.82,75.11H86.09L75,50.36Z"/><path d="M39.63,98.41a49.78,49.78,0,0,1-30.7-20.8h9a32.5,32.5,0,0,0,0-65h-.4a49.5,49.5,0,0,1,78.78,54.8L84.53,41.18a10.5,10.5,0,0,0-19.15,0Z"/><path d="M50,1A49,49,0,0,1,96.29,66.08L85,41a11,11,0,0,0-20.06,0L39.34,97.84A49.3,49.3,0,0,1,9.88,78.11H18a33,33,0,0,0,1-66A48.79,48.79,0,0,1,50,1m0-1A49.83,49.83,0,0,0,16.25,13.11H18a32,32,0,0,1,0,64H8A50,50,0,0,0,39.92,99l25.92-57.6a10,10,0,0,1,18.24,0L96.37,68.7A50,50,0,0,0,50,0Z"/><path d="M59.65,85.61H84.37A49.28,49.28,0,0,1,53.45,99.38Z"/><path d="M83.11,86.11A48.79,48.79,0,0,1,54.26,98.82L60,86.11H83.11m2.48-1H59.32L52.66,99.93A49.87,49.87,0,0,0,85.59,85.11Z"/><path class="cls-1" d="M88.91,81.38a47,47,0,0,1-3.32,3.73"/><path class="cls-1" d="M86.09,75.11H63.82l-4.5,10H85.59a47,47,0,0,0,3.32-3.73Z"/><path class="cls-1" d="M50,45.11a32,32,0,0,0-32-32H16.25a50.29,50.29,0,0,0-9.61,12H18a20,20,0,0,1,0,40H2.33A49.84,49.84,0,0,0,8,77.11H18A32,32,0,0,0,50,45.11Z"/><path class="cls-1" d="M54,85.11v-10h9.86L75,50.36,86.09,75.11h7.14a50.72,50.72,0,0,0,3.14-6.41L84.08,41.38a10,10,0,0,0-18.24,0L39.92,99A50,50,0,0,0,50,100c.89,0,1.78,0,2.66-.07l6.66-14.82Z"/><polygon class="cls-1" points="53.96 85.11 59.33 85.11 63.82 75.11 53.96 75.11 53.96 85.11"/><path class="cls-1" d="M86.09,75.11l2.82,6.27a49.12,49.12,0,0,0,4.32-6.27Z"/></g></g></svg>