<svg xmlns="http://www.w3.org/2000/svg" viewBox="0 0 1649.79 578.93"><defs><style>.cls-1{fill:#fff;}</style></defs><g id="Layer_2" data-name="Layer 2"><g id="Layer_1-2" data-name="Layer 1"><path class="cls-1" d="M1649.79,181c-2.8,5.77-4.67,12.3-8.59,17.17-12.37,15.38-36.19,17.26-50.63,3-5.24-5.18-10.81-6.41-17.5-3.85q-32.74,12.54-65.51,25.07c-18.62,7.15-37.2,14.39-55.81,21.54-7.35,2.82-7.56,3.44-8,11-.92,15.92-8.28,28.52-25.4,33.65-4.11,1.24-4.61,2.91-4.59,6.43.1,26,0,52,0,78v72.73h-11v-6q0-72.24,0-144.48c0-3.61-.31-5.51-4.79-6.82-16.44-4.78-24.51-17.49-25-33.76-.18-5.89-2.36-8.74-7.25-10.61q-39.18-15-78.35-30c-14.2-5.43-28.47-10.69-42.6-16.31-6.89-2.75-12.72-2.28-18.07,3.27a32.15,32.15,0,0,1-22.52,9.86c-16.93.53-31.81-9.52-36.29-27.3A34.89,34.89,0,0,1,1184.27,145c21.19-12.31,48.39-.19,52.57,23.79.44,2.57.46,5.24,1.09,7.76,1.33,5.37,5,8.5,10.11,10.46q52,19.86,103.93,39.92c5.49,2.11,11,4.27,16.52,6.24,2.71,1,5.57,1.53,8.36,2.28l.83-1.14a65.93,65.93,0,0,0-4.94-6.16q-25.32-24.84-50.78-49.52-21.89-21.15-44-42c-4.16-3.92-9.06-4.83-14.55-2.48-23.45,10-48.82-8.35-48.72-32.14.07-18.53,12.86-34.45,32.85-35.77C1267,65,1284,78.57,1284.72,99.94a43.5,43.5,0,0,1-2,14.08c-1.85,6-.49,10.86,3.7,15,15.35,15,30.83,29.88,46.26,44.81s31.07,30.12,46.67,45.11c2.33,2.24,5,4.08,7.59,6.1l1.43-.87c-1.23-3.88-2.17-7.88-3.75-11.61q-20.16-47.52-40.52-94.93c-3.15-7.37-6.14-14.81-9.47-22.09A13.66,13.66,0,0,0,1320.79,87c-15.11.68-30.43-13-33.11-28.47-3.48-20.16,9.68-38.07,27.72-41.25,19.82-3.5,38.37,8.86,41.54,28.67,2,12.19-1.58,22.18-9.65,31.1-4,4.47-4.21,9.6-1.83,15.13,8.15,19,16.14,38,24.22,57q13.54,31.85,27.16,63.66a68.25,68.25,0,0,0,3.45,6.26l1.48-.2a45.7,45.7,0,0,0,1-6.81c.06-43.66,0-87.32.1-131,0-6.8-3-11.43-8.89-14.08a33.86,33.86,0,0,1-18.83-20.4c-6.62-18.87,3.65-39.46,21.79-45.3A23,23,0,0,0,1399.82,0h17c.18.26.32.7.54.75,15.52,3.71,25,16.85,26.33,31.45a34.37,34.37,0,0,1-20.46,34.63c-6.83,3-9.4,8.27-9.4,15.27q0,64.72.05,129.44c0,2.47.76,4.93,1.33,8.33,1.37-1.52,2.21-2.1,2.57-2.89,4-8.78,8-17.55,11.83-26.41q20.48-47.83,40.79-95.75c2.55-6,4.31-12.11-1.07-17.88-7.79-8.36-11.12-18.09-9.61-29.7,2.59-19.91,20.11-33.3,40.79-30,19.28,3.06,30.56,19.79,29.17,37.59-1.35,17.32-15.55,32.56-34.23,32.24-5-.09-9.51,1.68-11.86,6.5q-5.11,10.58-9.74,21.38-20.43,47.64-40.68,95.36c-1.91,4.49-3.34,9.18-5,13.78l1.36.78a58.94,58.94,0,0,0,6.36-4.53q9.55-8.76,18.86-17.81c24.6-23.87,49.08-47.87,73.78-71.64,5.74-5.53,7.39-11.12,4.87-19a34.88,34.88,0,0,1,39.18-45c21.22,3.63,32.78,21.53,28.9,42-4.13,21.79-27.1,33.6-47.44,25.57-6.48-2.56-11.53-1.29-16.28,3.11-5.61,5.19-11.22,10.39-16.7,15.72q-39.37,38.28-78.65,76.67a38.2,38.2,0,0,0-3.44,4.5,19.76,19.76,0,0,0,9-1.14c38.94-14.88,77.75-30.07,116.81-44.61,9.3-3.47,14.45-8.67,15-18.68.71-12.06,12.1-26.91,30-29.68,9.32-1.45,26.76,3.3,32.9,14,2.68,4.69,4.74,9.74,7.08,14.63Z"/><path class="cls-1" d="M1649.79,483.94c-11.49,3.07-22.9,6.48-34.49,9.12-12.18,2.77-24.52,2.31-36.93,1a136.14,136.14,0,0,1-48.69-14.18c-10-5.15-19.44-11.42-29.47-17.4-26.5,20.87-57.26,32.38-92,32.4-34.55,0-65.12-11.48-91.5-32.2-11.42,6.48-22.41,13.35-34,19.12-13.67,6.82-28.44,10.26-43.63,12.2-23.73,3-46.48-.62-68.61-9.13-1.47-.56-3.47-2.31-3.52-3.58-.31-8.3-.16-16.63-.16-25.58,26,12.52,52.6,18,80.89,11.26,27.88-6.64,51.77-19.26,67.86-43.93,22.65,32.23,55,46.54,92.86,46.47,37.73-.07,70-14.34,92.72-46.25,17.5,25.89,42.85,39,72.8,44.71,25.55,4.91,49.5,0,72.59-11a26.8,26.8,0,0,1,3.21-1.06Z"/><path class="cls-1" d="M1649.79,525.93c-8.8,2.39-17.56,5-26.42,7.12a131.06,131.06,0,0,1-54.69,1.14c-21.12-3.84-41-10.83-58.17-23.41-7.85-5.73-12.47-4.53-19.62.5-18.86,13.28-40.32,20.21-63.09,23.76-31.19,4.86-60.21-2.06-88.09-15.28-7.18-3.4-13.67-8.32-20.29-12.82-2.71-1.84-4.54-1.94-7.32.1A145.79,145.79,0,0,1,1249,533.87c-8.41,1.41-17,3-25.42,2.88A153.52,153.52,0,0,1,1167,525.29V498.64c54.46,21.67,103.87,12.61,148.91-23.53,50,43.3,125.7,50.25,184.11.83,12.08,7.26,23.55,14.9,35.71,21.23,12.36,6.43,25.8,10,39.71,11.81a139.78,139.78,0,0,0,70.6-9.09,27.82,27.82,0,0,1,3.75-.95Z"/><path class="cls-1" d="M1206.85,578.93c-6.12-1.33-12.28-2.49-18.35-4s-11.94-3.31-17.88-5.08c-2.59-.78-4-2.26-3.86-5.43.29-7.3.09-14.63.09-23,54.61,21.89,104,12.6,149-23.4,57.94,48.47,131.59,45.13,184.86,0,45.31,35.91,94.68,45.89,149.09,23v27c-7,2.33-14,5-21.18,6.9-6.5,1.76-13.2,2.76-19.81,4.1h-31c-6.31-1.33-12.65-2.51-18.92-4-21.12-5.1-40.5-13.87-57.59-27.57a32.12,32.12,0,0,0-3.27,2,138.55,138.55,0,0,1-52.46,24.76c-7.22,1.73-14.49,3.26-21.74,4.88h-31c-5.23-1-10.49-1.84-15.67-3.06-21.3-5-41.22-13.13-58.6-26.75-2.35-1.84-3.82-1.18-6,.48A145.93,145.93,0,0,1,1262,573.86c-7.63,2-15.45,3.4-23.17,5.07Z"/><path class="cls-1" d="M0,509.94c12.83,0,25.66.05,38.49-.05,2.92,0,4.66.34,4.61,4s-1.54,4.23-4.58,4.11c-4.3-.17-8.61-.05-13.38-.05v50.58c-6.43,0-8.11-1.55-8.13-7.41,0-14.15,0-28.29,0-43.16H0Z"/><path class="cls-1" d="M445.22,400.05h38.34c-1.16,13.35-4.61,25.75-11.5,37-11.92,19.46-29.37,30.59-51.86,33.9-22.11,3.26-43.25.41-62.27-11.8-20.38-13.08-32.18-32.41-36.84-55.86-4.6-23.11-3-45.91,6.78-67.67,11.27-25,30.36-40.83,57.15-46.53,23.35-5,45.94-2.54,66.47,10.71,17.5,11.3,27.06,27.82,30.42,48.15a14,14,0,0,1-.13,2.72H445.62c-3.54-6.12-6-12.82-10.49-17.72-18.7-20.56-55.74-16.08-69,10.49-4.38,8.79-6.26,18.14-7.41,27.91A82.42,82.42,0,0,0,364.27,412c10,25.44,42.22,35.37,64.68,19.81,10.12-7,14.09-17.89,16-29.61C445.05,401.57,445.11,400.94,445.22,400.05Z"/><path class="cls-1" d="M115.62,264c4.38-11.67,8.49-22.69,12.66-33.68Q154.7,160.66,181.23,91.1a5.54,5.54,0,0,1,4-3c12.32-.24,24.64-.14,37.27-.14q32.79,87.69,65.65,175.54A67.31,67.31,0,0,1,253.74,262,15.76,15.76,0,0,1,243,251.26c-2.54-7.63-5.29-15.2-7.62-22.89-.77-2.55-1.82-3.46-4.45-3.44q-29.24.12-58.47,0c-2.64,0-3.74,1-4.53,3.32-3.61,10.55-7.46,21-10.94,31.61-1.05,3.18-2.49,4.3-5.94,4.22C139.48,263.81,127.87,264,115.62,264Zm64-68.85h44.23l-21.8-63.24C194.31,153.71,187.06,174.16,179.62,195.12Z"/><path class="cls-1" d="M1108.81,265.06c-13.53-1.17-29.33,3.74-40-11.56a40.28,40.28,0,0,1-26.33,14.2c-26.49,3-47.88-5.25-60.59-33.16A81.16,81.16,0,0,1,975,195.07c1.26-18.72,6.58-36.07,21.32-48.91,12.05-10.51,26.17-14.53,42.21-12.41,12.15,1.6,22.18,6.63,29.9,16.39l1.12-.58V88.23h36.32V94c0,49.81-.11,99.63.13,149.44C1106,250.38,1107.75,257.31,1108.81,265.06Zm-37.28-64.19c-.9-6.16-1.14-12.52-2.84-18.45-4.3-14.94-11.84-21.27-26.49-22.17-10.22-.63-21.61,3-27.33,17.9-6,15.58-5.84,31.19,1,46.46,4.1,9.13,11.05,15.15,21.33,16.33,12,1.38,22.07-2.29,28.1-13.22C1069.85,219.52,1071.3,210.37,1071.53,200.87Z"/><path class="cls-1" d="M671.39,265.78c-10.34-.95-20.82-1.11-31-3-13.88-2.61-21.15-13.35-27.62-24.88-5.63-10-12-19.66-18.82-30.7-4,4.43-7.93,8.42-11.41,12.76-1.08,1.35-1.37,3.64-1.39,5.51-.11,13-.06,25.93-.06,39.21h-34.9V88.4H581v92.27l1.38.64c2.2-2.38,4.37-4.78,6.6-7.13,10.88-11.48,21.66-23.05,32.77-34.31a12.29,12.29,0,0,1,7.69-3.24c10.65-.36,21.32-.16,32-.14,1.59,0,3.18.14,3.55-.42-14.69,16.32-29.39,32.64-44.74,49.67l51.94,78.2C671.92,264.56,671.65,265.17,671.39,265.78Z"/><path class="cls-1" d="M842.35,265.1c-14.54-.79-29.42,2.79-39.16-11-19.88,15.25-42,18.77-65.5,9.06-15.81-6.55-20.49-20.3-20.11-35.39.57-22.4,14.89-31.94,35.26-35.72,12.59-2.33,25.39-3.57,37.91-6.18,10-2.08,11.86-5.52,11.15-15.92-.46-6.75-5.12-10.51-13.37-12.07-7.55-1.43-14.73-1.14-21.7,2.06-5.22,2.39-7.82,6.71-9.06,12.21-.34,1.51-2.13,3.81-3.31,3.84-10.79.3-21.58.17-32.35.17-.82-17.41,10.52-31.88,28-38.06,14.5-5.12,29.47-6.16,44.82-4.31,10.55,1.26,20.78,2.92,29.68,9.12,8.52,5.94,13.23,14,13.25,24.6,0,19.16.05,38.33,0,57.49C837.84,238.2,837.7,251.41,842.35,265.1Zm-39.92-60.81c-6.56,1.33-12.48,2.36-18.31,3.75-7.6,1.8-15.4,3.21-22.63,6-7,2.74-8.81,9-8.43,15.4.43,7.25,4.48,11.89,11.69,13.38a45.93,45.93,0,0,0,14.76,1c10.2-1.26,18.52-5.22,21.18-17.38C802.29,219.11,801.94,211.38,802.43,204.29Z"/><path class="cls-1" d="M489.54,403.81c.18-18.21,5.28-34.67,17.55-48.23,7.88-8.7,18.13-14.06,29.63-16.89,19.3-4.75,38-3.25,55.37,6.57,15.17,8.57,24.25,22.08,28.2,39,4.68,20,3.09,39.21-7.22,57.37-8.72,15.34-22.26,24.35-39,28-18.28,4-36.41,2.71-53.13-6.72-17.66-9.94-26.86-25.71-30-45.33C490.25,413.05,490,408.41,489.54,403.81Zm35.64-.19c1,6.41,1.33,12.88,2.93,19,3.09,11.84,12.35,21.4,26.62,21.55,14.43.16,24.36-5.67,28.9-19.07a65.43,65.43,0,0,0,.06-42.22c-4.28-13-14.89-19.84-28.27-19.46-15.62.45-24,9.68-27.34,22.06C526.51,391.33,526.13,397.47,525.18,403.62Z"/><path class="cls-1" d="M370,136.8h36v5.69q0,39.72,0,79.44c0,14.32-.8,28.71,4.84,44-10.18-1.09-19.26-1.48-28.08-3.18-8.09-1.57-10.55-5.45-10.87-12.5-6.6,4.51-13.07,10.74-20.79,13.85-17.36,7-34.87,6.21-50.71-4.85-8.29-5.78-11.82-14.91-13.24-24.5a200.08,200.08,0,0,1-2-26.68c-.28-21.81-.1-43.63-.1-65.45v-5.78h36V147c0,21.32-.17,42.64.12,63.95a54.18,54.18,0,0,0,2.55,16c4.06,12.38,14.29,14.5,25.18,12.67,12.84-2.17,19.52-9.45,20-22.56.88-24.24.82-48.51,1.15-72.77C370,141.93,370,139.61,370,136.8Z"/><path class="cls-1" d="M884.89,264.75H849.17V136.91H882.8v15.15c4.94-4.07,9.27-8.64,14.48-11.74,17.41-10.33,35.55-10,53.18-.91,10.48,5.41,15.72,15.5,17.27,26.91a263.44,263.44,0,0,1,2,29.73c.33,16.32.14,32.64.19,49,0,6.71-1.1,13.63,4.22,19.39-.28.46-.55.92-.82,1.39-9.6-1-19.28-1.38-28.75-3-7.91-1.38-10.65-5.73-10.65-13.65,0-19.48.19-39-.12-58.45a65.15,65.15,0,0,0-2.61-16c-3.07-11.27-12.38-13.71-22-13.17-19.54,1.1-23.52,14-24.09,29.45-.82,22.62-.21,45.3-.21,67.95Z"/><path class="cls-1" d="M749.91,340.26v5.53c0,30.66-.21,61.32.12,92,.1,9.94,1.63,19.85,2.56,30.36-9.86,1.19-20.55.51-30.84-3.84-5.27-2.22-6.44-6.69-5.84-12.3-4.36,3.83-8.12,7.72-12.45,10.82-10,7.18-21.21,9.67-33.62,8.39-7.64-.78-15.09-1.85-21.65-5.7-9.8-5.77-15.24-15-17.13-26a144.49,144.49,0,0,1-2-22.65c-.25-23.65-.09-47.31-.09-71v-5.66h36v5.13c0,23.16-.12,46.32.09,69.48a59.59,59.59,0,0,0,2.12,14.58c2.35,8.84,9,13.5,18.34,13.51,15.15,0,22.54-4.39,25.91-16.44A64.79,64.79,0,0,0,713.8,410c.27-21.32.11-42.65.11-64v-5.72Z"/><path class="cls-1" d="M761.1,467.7V340.25h33.6v15.42c5.48-4.46,10.2-9.19,15.73-12.61,9.48-5.86,20-8.59,31.17-6.16,7.13,1.55,14.76,2.46,21.07,5.76,10.18,5.34,15.46,15.11,17.11,26.37a190.85,190.85,0,0,1,2,24.69c.29,19-.09,38,.2,57,.08,5.59,1.47,11.16,2.34,17.29a60.56,60.56,0,0,1-31-3.24q-7.6-2.81-7.5-11.58.33-29.75,0-59.49a62.15,62.15,0,0,0-2-14.08c-2.52-10.19-8.66-14.5-19.32-14.69-7.71-.15-15.28.51-20,7.25a44.41,44.41,0,0,0-6.32,14.16c-1.21,4.55-1.16,9.51-1.19,14.29-.11,20.5-.05,41-.05,61.49v5.6Z"/><path class="cls-1" d="M1392.62,344.62c-8.39,2.43-16.65,5.77-25.21,7.07a321.63,321.63,0,0,1-42.19,4.06c-22.07.41-43.78-3.38-65-9.17-21.09-5.75-41.21-13.82-59.2-26.6-10.18-7.23-19.48-15.21-24.59-27-3.71-8.54-3.57-17.15-.19-25.78C1252.57,281,1323.15,310.37,1392.62,344.62Z"/><path class="cls-1" d="M1423.39,343.7c16.63-7.61,31.92-15.1,47.6-21.66,22.72-9.5,45.58-18.7,68.64-27.35,27.66-10.38,56.17-18.08,85-24.6,4.29-1,8.78-1.11,13-2.26,3-.81,3.62.38,4.21,2.78,2.88,11.68.47,22.22-6.84,31.64-12.39,16-29.58,25.45-47.46,33.54-18.66,8.43-38.52,13.31-58.61,17-7.08,1.29-14.35,1.66-21.56,2.15-7.92.53-15.91,1.35-23.81.92C1463.44,354.74,1443.55,352.17,1423.39,343.7Z"/><path class="cls-1" d="M537.91,181.84h-32.8c-3.87-6-6.25-12.74-11-16.48-12.36-9.69-32.7-6.63-40.15,9.58-8.25,18-8.58,35.87.88,53.53,5.56,10.38,14.89,13.53,25.88,12.43,10.2-1,17.32-6.65,21.19-16.17,1.21-3,1.15-7.86,3.18-8.87,3.23-1.62,7.72-.82,11.68-.86,7.29-.08,14.59,0,21.93,0C536.6,238,523.24,258.05,500,264.8c-22.6,6.57-44.46,4.8-64-9.81-11.73-8.78-18.76-20.93-21.89-35-4.14-18.52-2.47-36.8,6.25-53.85,9.71-19,25.51-29.4,46.72-32.34,15.9-2.2,30.9,0,45,7.26,14.73,7.58,23,20.15,25.74,36.4A27.89,27.89,0,0,1,537.91,181.84Z"/><path class="cls-1" d="M1014,384.9H979.81c-1.93-4.18-3.3-8.46-5.69-12.06-8.31-12.5-33.49-13.68-42.71,2.52-10.48,18.4-10.65,37.76-.78,56.59,6,11.47,17,13.75,28.62,11.8C969.58,442,975.8,435,978.83,425.1c.6-2,1-4,1.51-6.12h34.06c-2.15,26.59-19.76,45.83-46.38,51-19.08,3.72-37.12,1.33-53.32-9.81C899,449.37,891.05,433.9,888.78,415c-2.2-18.37.85-35.53,10.67-51.12,10.54-16.71,26.3-24.88,45.82-27.07,15.62-1.76,30.3.69,43.83,8.27C1004.22,353.57,1012.44,366.91,1014,384.9Z"/><path class="cls-1" d="M1178.93,262.74c3.94-6.85,9.83-11,16-14.76,11.55-6.93,24.37-9.44,37.58-10a159,159,0,0,1,78.07,17c35.74,17.74,64.3,43.13,82.75,79,.42.82.74,1.69.82,1.88-34.69-14.52-69.47-29.93-104.91-43.66A527.74,527.74,0,0,0,1178.93,262.74Z"/><path class="cls-1" d="M1421.35,336c6.66-10,12.59-20.6,20.11-29.91,20.6-25.55,46.48-44.24,77-56.43A158.55,158.55,0,0,1,1564,238.75c16.12-1.4,31.82-1,47.19,4.24,10.7,3.65,19.48,10.08,27.18,19.59-76.7,12.29-147,41.5-215.79,74.8Z"/><path class="cls-1" d="M1069.87,284.85c11.5,6.29,23.66,5.59,36,6.38v6.09c0,48.63-.12,97.26.12,145.89,0,8.12,1.64,16.23,2.55,24.72-9.37,1.84-19.73.85-29.6-2.51-7.55-2.56-9.17-4.82-9.15-12.67.16-54,.09-107.92.09-161.88Z"/><path class="cls-1" d="M714.11,264.91c-9.8-.23-21.05,1.39-31.73-3.69-4.61-2.19-6.56-5.2-6.54-10.39q.2-78.68.08-157.34v-5.2H711.8v5.78c0,46.62,0,93.24.21,139.86C712.07,244.2,713.37,254.47,714.11,264.91Z"/><path class="cls-1" d="M1022.22,340.11h35.13v127.5h-35.13Z"/><path class="cls-1" d="M842.63,568.68c-7.06-.59-8.29-2.41-8.12-8.94.31-11.47.09-23,.09-35.86-6.1,15.77-11.73,30.36-17.38,45-4.81-.47-7.06-2.69-8.58-7-4.29-12.37-9.21-24.52-14.24-37.67v44.55c-6.38-.26-7.56-1.38-7.56-7.49q0-23.22,0-46.44c0-1.46.13-2.92.23-4.81,2.24,0,4.21.13,6.14,0,2.72-.23,4,.71,5,3.45,5.14,13.63,10.63,27.14,16.29,41.46,3.62-9.15,7-17.7,10.39-26.27,2-5.18,4.08-10.37,6-15.59,1.87-5,6.1-2.74,9.32-2.74.89,0,2.54,3,2.56,4.64.19,17,.12,33.95.1,50.93C842.88,566.75,842.71,567.71,842.63,568.68Z"/><path class="cls-1" d="M151.14,510.62c-9,7.9-17.24,15.08-25.41,22.21,4.83,7.43,8.55,13,12.13,18.7s6.84,11.11,10.34,16.82c-6.35.85-11.38-1.42-14.16-6.1l-12.75-21.51c-5.09,3.91-9.62,7.51-8.42,15,.67,4.18.12,8.55.12,13h-7.67V510.24h7.58v27.91c3.6-3.55,6.53-6.33,9.33-9.23,4.62-4.79,9.48-9.39,13.64-14.55C139.68,509.66,144.18,509.26,151.14,510.62Z"/><path class="cls-1" d="M611.92,568.86c-4.61-.4-7.26-1.67-7.1-6.93.34-11.6.1-23.22.1-35.17,3.18.56,7.19-2.18,7.21,2.93,4.07-1.55,8.31-4.49,12.45-4.36,3.85.12,7.59,3.51,12.09,5.84,1.44-.94,4.08-2.81,6.85-4.45,9-5.35,19.1,3.39,18.58,11.6-.6,9.41.24,18.91.34,28.37a4.12,4.12,0,0,1-1.34,2.06,30.42,30.42,0,0,1-6-3.55c-.6-.49-.19-2.22-.19-3.38,0-6.82.13-13.65-.06-20.47-.11-3.89-.89-7.7-5.8-8.4-5.78-.82-10.46,1.31-11.06,6.42-.94,8-.68,16.15-.85,24.24,0,1.88,2.28,4.85-1.32,5.07-2.84.17-6-1-5.92-5.13.07-5.66,0-11.32,0-17,0-1.33,0-2.66,0-4-.15-6.74-2.53-9.68-7.82-9.7-6.28,0-10.09,3.7-10.16,10.15C611.86,551.45,611.92,559.88,611.92,568.86Z"/><path class="cls-1" d="M1021.87,321V291c11.31,0,22.23-.08,33.15.14.93,0,2.57,2,2.61,3.14.23,7.81.25,15.64,0,23.45,0,1.12-2,3.08-3.17,3.1C1043.81,321.05,1033.18,321,1021.87,321Z"/><path class="cls-1" d="M432,561.55l5.6.94c-1.95,2.54-3.36,5.9-4.81,5.92-2.6,0-5.22-1.94-8.28-3.27-4.25,4.37-10.38,5.54-17.27,3.76-5.52-1.44-10.42-8.25-10.22-14.25.17-5.29,5.51-9.7,13-10.71,3.25-.45,6.63-.53,9.7-1.55,1.71-.57,4.23-2.95,4-4.11-.38-2.2-2-5.13-3.89-5.94-6.51-2.78-12.62.62-14.49,7.41h-5.77c-2.67-7.63,2.89-13.33,11.85-14.6,11.38-1.61,21.06,1.69,20.61,17.42C431.8,548.71,432,554.87,432,561.55Zm-8-13.92c-2.73.54-5.15,1-7.55,1.51s-4.95.79-7,1.92c-1.78,1-4.11,3-4.14,4.59a8,8,0,0,0,3.31,5.86,9.64,9.64,0,0,0,7,.93C423.17,560.35,424.5,558.53,424,547.63Z"/><path class="cls-1" d="M176.63,565c-5,3.62-10.35,5.76-16.87,4-7.53-2.06-12.15-8.84-10.74-16.44.8-4.31,5.69-7.63,12.61-8.63,3.23-.47,6.61-.59,9.61-1.72,1.88-.71,4.75-3.62,4.42-4.46-.88-2.24-2.95-5-5.09-5.58-6.53-1.84-9.21.16-12.9,6.06-1,1.57-4.49,1.54-6.91,2.27-1.38-7.63,2.28-12.81,10.16-14.76,11.12-2.75,23.86.35,22.12,16.18-.44,4.11-.07,8.31-.06,12.47a13.8,13.8,0,0,0,.11,4c.39,1.27,1.34,3.28,2.17,3.34,3.13.24,3.53,2.19,2.23,3.92a7.35,7.35,0,0,1-5.3,2.81C180.4,568.35,178.7,566.38,176.63,565Zm-.83-17.34c-4.31.79-8.49,1.48-12.64,2.34-5.56,1.14-8.66,5.93-5.54,9.35,1.94,2.12,6.12,3.5,9.06,3.15C173.93,561.67,176.27,557.26,175.8,547.69Z"/><path class="cls-1" d="M933.33,539.78h-5.81c-1.14-6.16,1.13-10.24,7-13.06,7.76-3.72,22.62-2.33,24.52,7a47.09,47.09,0,0,1,.81,8.31c.13,4.83.15,9.66,0,14.49-.1,3.39.11,6.26,5.29,5.33l.42,1.29c-1.43,1.88-2.77,5.22-4.31,5.31-2.6.16-5.32-1.74-8.7-3.06-7,5.54-16.08,6.15-21.95.81a13.93,13.93,0,0,1-4.33-14.86c1.59-5.51,7.18-6.19,11.93-7.35,3.32-.8,6.84-.89,10-2,1.8-.62,4.3-2.62,4.36-4.09.13-3.07-1.87-5.44-5.39-5.95C939.6,530.84,936.81,532.36,933.33,539.78Zm19.32,7.68c-5.25,1.2-10.41,2-15.3,3.68-1.8.6-4.14,3.13-4.11,4.74a7.9,7.9,0,0,0,3.67,5.75,11.52,11.52,0,0,0,7.49.63C951.15,560.63,953.21,556.64,952.65,547.46Z"/><path class="cls-1" d="M602,562.72c-1.57,2.27-2.7,5.37-3.94,5.41-2.72.09-5.5-1.36-9.15-2.45-4.11,2.83-9.58,5.25-16.27,3.32-6.36-1.84-10.4-6.5-10.69-13.21-.27-6.38,4.33-10.67,12.61-11.87A84,84,0,0,0,585.15,542c1.43-.4,3.53-2.05,3.53-3.13a7.86,7.86,0,0,0-2.28-5.54c-4.68-3.8-13-.88-15.72,4.34-.93,1.76-4.54,2.11-7.31,3.25-.39-7.54,2.9-13.55,8.52-14.63a46.2,46.2,0,0,1,15.52-.14c5.32.83,8.34,5.23,8.48,10.65.17,6.48,0,13,.08,19.46C596,560.56,596.73,561.42,602,562.72Zm-13.32-15.27c-5.17,1.26-10.45,2.18-15.47,3.88-4.25,1.44-4.82,7.55-.93,9.65a12.76,12.76,0,0,0,7.84,1.56C587.4,561.1,590.06,556.29,588.66,547.45Z"/><path class="cls-1" d="M856.34,539.79h-5.79c-1.15-5.78.57-9.84,5.4-12.39,6.34-3.35,12.93-3.42,19.52-.86,5.3,2.05,7.23,6.47,7.38,11.74.17,6,.14,12,0,18-.08,3.52.06,6.56,6.67,5.59-2.49,3.16-3.92,6.54-5.52,6.62-2.61.14-5.33-1.87-8.59-3.22-4.38,5.06-11.19,5.52-18.33,3.28-5.63-1.76-9-8.5-8.21-15.43.52-4.79,4.8-8,12-9.14,3.39-.51,6.89-.72,10.11-1.78,1.8-.59,4.65-3.29,4.38-3.94-1-2.33-2.69-5.35-4.79-6C863.5,530,859,532.7,856.34,539.79Zm19.38,7.65c-5.2,1.19-10.35,2-15.25,3.67-1.83.61-4.09,2.9-4.27,4.63s1.39,4.59,3,5.64a10.64,10.64,0,0,0,7.06,1.26C873.52,561.33,876.12,556.94,875.72,547.44Z"/><path class="cls-1" d="M675.4,539.81h-5.77c-2.75-7.47,3.62-13.36,11.7-14.66a29,29,0,0,1,11.21.86c6.29,1.55,9.25,5.74,9.35,12.21.09,6.15,0,12.31,0,18.46,0,4.66,0,4.66,5.91,6-1.78,2.3-3.17,5.69-4.75,5.79-2.61.15-5.34-1.82-8.66-3.16-4.36,4.9-11.14,5.46-18.27,3.27-5.6-1.72-9-8.48-8.26-15.41.5-4.83,4.72-8.08,11.91-9.19,3.39-.53,6.9-.7,10.12-1.75,1.82-.59,4.72-3.26,4.45-3.92-.94-2.34-2.65-5.38-4.75-6.07C682.65,529.9,677.94,532.72,675.4,539.81Zm19.25,7.64c-5.19,1.18-10.45,2.09-15.49,3.7-1.7.54-4,2.91-3.94,4.38a8.45,8.45,0,0,0,3.34,6,10.14,10.14,0,0,0,7.05,1C692.85,561,695.33,556.58,694.65,547.45Z"/><path class="cls-1" d="M1072.62,563.54c-1.65,1.77-3.23,4.89-5,5-2.44.13-5-2-7.86-3.34-6.25,6.16-17.17,5.71-22.28,1-4.51-4.18-5.86-9.44-4.24-14.88s7.18-6.19,12-7.29c3.33-.76,6.84-.89,10.06-1.94,1.73-.56,4.49-3.09,4.25-3.64-1-2.32-2.56-5.36-4.64-6.11-7-2.5-11.66.18-14.36,7.42h-6.15c-.88-5.83.83-10,5.75-12.39a22.41,22.41,0,0,1,20-.48c4.8,2.18,6.56,6.3,6.66,11.24.11,6.15.14,12.32,0,18.47-.09,3.44.17,6.21,5.29,5.3Zm-12.93-16c-4.25.82-8.4,1.59-12.54,2.43-4.88,1-7.88,4.08-7.1,7.25.94,3.85,5.89,6.49,10.32,5.51C1057.5,561.18,1060.13,557,1059.69,547.58Z"/><path class="cls-1" d="M72.71,554.33c-1.71,11.95-13.13,16.9-21.53,15.41-13.44-2.37-17.2-10.64-18-21.84-.64-9.32,3.74-18.8,15.06-22.19,11.72-3.51,24.07,4.76,24.7,17,.09,1.82,0,3.65,0,6.26H42.77a11.63,11.63,0,0,0,7.12,14c5.63,2.23,11.51.87,13.6-4.29C65.49,553.64,68.51,553.3,72.71,554.33Zm-7.89-11.61c-1.94-8.53-5.91-12.22-12.33-11.78-5.81.39-9.4,4.46-10.23,11.78Z"/><path class="cls-1" d="M296,568.41c-7.79,1.07-7.88,1-7.88-5.95,0-17.27,0-34.54,0-52.16h7.67v19.85c3.38-1.51,6.27-3.36,9.43-4.14,10.79-2.64,18.22,2.81,18.7,14,.41,9.45.08,18.93.08,28.36-5.55.67-7.89-1.23-8-6.49-.1-6.65-.34-13.32.07-20,.32-5-1.27-8.42-6.13-9.83-3.9-1.14-10.1,1.91-11.92,6.11a24,24,0,0,0-2,8.46C295.78,553.91,296,561.2,296,568.41Z"/><path class="cls-1" d="M337.25,548.85c-.49,7.44,3.63,13.94,8.93,15,7.28,1.5,11.61-1.13,14.27-8.73h7.3c-2.26,10.53-9.46,15.31-21.85,14.77-8-.35-15.78-7.66-16.91-16-1-7.09-1-14,3.49-20.25a20.67,20.67,0,0,1,22.72-7.41c7.54,2.3,12.78,10,12.75,18.57v4Zm22.44-5.26c-.68-8.41-4.9-12.23-12.69-11.72-5.92.39-9.66,5-9.47,11.72Z"/><path class="cls-1" d="M745.65,569.17c-15.1-.83-14.3-15.32-22-21.94-8.73,4.4-4.79,13.08-6,20.49h-7.44V510.19h7.47v33.19c4.52-4.79,8.34-8.36,11.58-12.4,3.63-4.52,8-6.09,14.5-4.5-3.91,4-7.33,7.87-11.18,11.27-3.1,2.73-3.25,5-1,8.4C736.3,553.38,740.62,560.89,745.65,569.17Z"/><path class="cls-1" d="M465.94,548c-.36-8.82,2.74-16.13,10.73-20.13,7.47-3.74,15.34-3.65,22.37,1.54,11.59,8.56,10.63,30.56-1.46,37.71-7.2,4.26-14.58,4.08-21.77.56C469.14,564.37,465.94,557.33,465.94,548Zm33.23-1.07c-.39-2-.71-4.32-1.28-6.53-1.28-4.92-5.11-8.17-9.73-8.43-6.45-.35-10.39,1.61-12.2,7.06a32.36,32.36,0,0,0-1.88,11.55c.61,11,9.79,16.76,18.34,11.79C498.14,559,498.24,552.87,499.17,546.89Z"/><path class="cls-1" d="M923.9,526.55c-4.16,4.47-8,8.79-12,12.82-1.88,1.87-2.11,3.17-.64,5.48,4.83,7.6,9.38,15.38,14.09,23.17-5.17,1.41-8.59-.19-11.41-5.07q-4.56-7.86-9.1-15.72c-9.39,4.34-6.34,12.95-7,20.52H891V510.29h6.79v32.94c4.87-4.82,9-8.79,13-12.91C915.67,525.32,915.61,525.26,923.9,526.55Z"/><path class="cls-1" d="M232.31,526c3.31.15,7.25-1.79,7.67,3.91,6-4.42,12.13-6.69,19.16-3.92a11.49,11.49,0,0,1,7.77,10.5c.32,5.29.22,10.61.26,15.91s0,10.52,0,15.91c-4.55.88-7.16-1.13-7.19-6.19,0-6.49,0-13,0-19.46,0-7.57-2.21-10.6-7.83-10.75-6.64-.17-12,4.43-12.12,10.91-.2,8.45-.05,16.91-.05,25.73h-7.66Z"/><path class="cls-1" d="M190,526.14h7c0,7.34,0,14.61,0,21.88,0,2.47.3,5,.5,7.42.33,4.15,2.74,7.28,6.66,7.17a15.93,15.93,0,0,0,9.59-3.79c2-1.81,2.91-5.53,3.06-8.47.4-7.94.13-15.91.13-24.14h7.61V569.8l-8-5.45c-3.78,3.58-8.87,6.78-15.86,4.79-6.37-1.82-10.33-5.42-10.62-11.93C189.67,546.94,190,536.63,190,526.14Z"/><path class="cls-1" d="M967.91,526.13h7V551c0,8.65,2.22,11.86,8.27,11.94,5.89.09,11.52-5.67,11.68-12.38.18-8,0-15.94,0-24.25h7.48v43.39l-8.35-5c-4.19,3.67-9.46,6.37-16.29,4.39-5.68-1.65-9.44-4.64-9.67-10.41C967.6,547.86,967.91,537.08,967.91,526.13Z"/><path class="cls-1" d="M1109.46,569.86l-8.44-5.25c-4.15,3.53-9.36,6.41-16.19,4.42-5.79-1.69-9.62-4.91-9.83-10.75-.38-10.59-.11-21.21-.11-32.08h7v13.59c0,4.65,0,9.31,0,14,0,3.41.6,6.54,4.28,8.17,4.09,1.8,8.19,1.43,10.76-1.86a22.09,22.09,0,0,0,4.73-10.82c.72-7.54.21-15.2.21-23.06h7.6Z"/><path class="cls-1" d="M549.24,568.72c-6.31-.43-8.27-2.42-8.29-8.13-.06-14,0-28,0-42.48h-16.7v-7.93h42.33v7.55H549.24Z"/><path class="cls-1" d="M374.29,525.94c1.81,0,3.29,0,4.77,0,.82,0,1.64.1,2.66.16l.37,3.78L395.65,524v9.25c-11.44.84-13.7,3.34-13.7,15.11v13.48c0,7.34,0,7.34-7.66,6.8Z"/><path class="cls-1" d="M1009.05,568.69V526.27h7.59c.13,1.3.28,2.67.37,3.54l13.51-5.73v9.27c-2.15.21-4.35.08-6.33.68-4.48,1.36-7.3,4.29-7.31,9.28,0,6.31,0,12.62,0,18.94C1016.87,569.19,1016.87,569.19,1009.05,568.69Z"/><path class="cls-1" d="M274,526.08h8c0,5.39,0,10.65,0,15.91,0,7.82.15,15.64-.16,23.45-.05,1.21-2.15,3.12-3.46,3.27s-4.15-1.44-4.16-2.31C273.91,553.13,274,539.86,274,526.08Z"/><path class="cls-1" d="M755.58,568.59c-7.56.68-7.56.68-7.56-6.18,0-11.95,0-23.91,0-36.16h7.56Z"/><path class="cls-1" d="M588.94,514.94c-.38,4.24-1.7,6.48-5.87,6-2.45-.26-5,.34-7.39-.21-1.36-.31-2.38-2.12-3.55-3.25,1.15-.86,2.23-2.31,3.48-2.46a71.32,71.32,0,0,1,8.9-.12Z"/><path class="cls-1" d="M281.66,518.81H274.6c-1.7-8.91-1-9.7,7.06-8.26Z"/><path class="cls-1" d="M748.73,510.17h6.87v8.51h-6.87Z"/></g></g></svg>