<svg xmlns="http://www.w3.org/2000/svg" viewBox="0 0 189.91 52"><defs><style>.cls-1{fill:#fff;fill-rule:evenodd;}</style></defs><g id="Layer_2" data-name="Layer 2"><g id="Layer_1-2" data-name="Layer 1"><path class="cls-1" d="M57.63,30.89l4.65-10.12a.31.31,0,0,1,.26-.16h.14a.31.31,0,0,1,.26.16l4.65,10.12a.26.26,0,0,1-.25.39H65.69c-.27,0-.39-.09-.52-.38l-.54-1.19h-4l-.54,1.21a.55.55,0,0,1-.53.36H57.88A.26.26,0,0,1,57.63,30.89Zm6.11-3.22-1.13-2.48h0l-1.12,2.48ZM69.67,21a.29.29,0,0,1,.28-.28h1.83a.28.28,0,0,1,.29.28v6.09A1.82,1.82,0,0,0,73.89,29a1.84,1.84,0,0,0,1.86-1.89V21a.28.28,0,0,1,.28-.28h1.83a.3.3,0,0,1,.29.28v6.21a4.24,4.24,0,0,1-8.48,0Zm17-.43A5,5,0,0,1,90.26,22a.29.29,0,0,1,0,.43l-1.16,1.21a.27.27,0,0,1-.37,0h0a3,3,0,0,0-2-.76,3.07,3.07,0,0,0,0,6.14,3.13,3.13,0,0,0,2-.72.28.28,0,0,1,.38,0l1.16,1.24a.31.31,0,0,1,0,.41,5.09,5.09,0,0,1-3.62,1.46,5.41,5.41,0,0,1,0-10.82m6.78.51a.35.35,0,0,1,.36-.36h1.74a.36.36,0,0,1,.36.36v3.95l3.3-4.16a.39.39,0,0,1,.28-.15h1.87a.35.35,0,0,1,.27.55l-3.48,4.41,3.79,5a.35.35,0,0,1-.09.49.31.31,0,0,1-.19.06H99.6a.43.43,0,0,1-.27-.1L95.9,26.44v4.48a.37.37,0,0,1-.36.36H93.8a.36.36,0,0,1-.36-.35h0v-9.8ZM104.82,21a.28.28,0,0,1,.28-.28h1.77a.29.29,0,0,1,.28.28v8h3.54a.28.28,0,0,1,.28.28V31a.29.29,0,0,1-.28.29H105.1a.28.28,0,0,1-.28-.29V21Zm8.36,9.85,4.66-10.12a.28.28,0,0,1,.25-.16h.15a.29.29,0,0,1,.25.16l4.65,10.12a.26.26,0,0,1-.25.39h-1.65c-.27,0-.39-.09-.52-.38l-.54-1.19h-4l-.53,1.21a.58.58,0,0,1-.54.36h-1.63A.27.27,0,0,1,113.18,30.89Zm6.11-3.22-1.13-2.48h0L117,27.67Zm6.56-6.79a.29.29,0,0,1,.29-.27h.37l5.93,5.77h0V21a.28.28,0,0,1,.29-.28h1.78a.29.29,0,0,1,.28.28V31.16a.28.28,0,0,1-.28.27h-.24a.46.46,0,0,1-.19-.08l-5.87-6h0V31a.29.29,0,0,1-.28.29h-1.77a.3.3,0,0,1-.28-.29l0-10.11Zm13,.16a.28.28,0,0,1,.27-.28h3.63a5.26,5.26,0,0,1,0,10.52h-3.63a.29.29,0,0,1-.27-.29V21Zm3.75,8a2.91,2.91,0,0,0,2.9-3.05,2.9,2.9,0,0,0-2.9-3h-1.43v6.08Zm14.54-8.16a.28.28,0,0,1,.28-.28h1.77a.29.29,0,0,1,.28.28v8H163a.28.28,0,0,1,.28.28v1.64a.29.29,0,0,1-.28.29h-5.59a.28.28,0,0,1-.28-.29h0V20.89Zm9,0a.29.29,0,0,1,.28-.28h1.78a.3.3,0,0,1,.29.28v10a.3.3,0,0,1-.29.29h-1.78a.3.3,0,0,1-.28-.29Zm4.75.11a.26.26,0,0,1,.26-.39h2a.31.31,0,0,1,.26.16l2.45,5.49h.09l2.45-5.49a.28.28,0,0,1,.25-.16h2a.26.26,0,0,1,.25.39L176.1,31.11a.3.3,0,0,1-.26.17h-.14a.3.3,0,0,1-.26-.17L170.8,21Zm12.39-.11a.28.28,0,0,1,.28-.28h6.15a.28.28,0,0,1,.29.28v1.64a.29.29,0,0,1-.29.29h-4.11v1.86h3.39a.3.3,0,0,1,.28.29V26.6a.29.29,0,0,1-.28.29h-3.39v2h4.11a.28.28,0,0,1,.29.28v1.64a.29.29,0,0,1-.29.29h-6.15a.28.28,0,0,1-.28-.29Z"/><path class="cls-1" d="M51.75,11.8a12.85,12.85,0,0,1-.85,4,25.52,25.52,0,0,1-1.83,3.85A51.65,51.65,0,0,1,44,26.81c-1.3,1.54-2.64,3-4,4.48.25-.81.46-1.51.62-2.06L41,27.57h0l.12-.43c.07-.28.19-.7.3-1.29a3.41,3.41,0,0,0,.06-.51,1.39,1.39,0,0,0,0-.39v0l.12-.66A39.13,39.13,0,0,0,42.2,18a19.23,19.23,0,0,0-.27-3.35,11.3,11.3,0,0,0-.44-1.71,6.87,6.87,0,0,0-.84-1.64A4.12,4.12,0,0,0,39.18,10a4.05,4.05,0,0,0-1.91-.4,5.53,5.53,0,0,0-.93.09,6.7,6.7,0,0,0-.91.21,9.71,9.71,0,0,0-1,.34l.2-.21a15.38,15.38,0,0,1,5.9-3.63,14.15,14.15,0,0,1,3.58-.73,9.81,9.81,0,0,1,3.69.38,5.7,5.7,0,0,1,3,2.07,5.22,5.22,0,0,1,.78,1.71,7,7,0,0,1,.2,2M40.81,36.19l-.05,0-.37-.37c-.27-.26-.66-.65-1.15-1.17a3.45,3.45,0,0,1-.26-.28l.27-.82c.2.3.39.6.56.88.27.44.52.86.72,1.23l.28.56M32.1,46.67a15.42,15.42,0,0,1-1.51,2,6.71,6.71,0,0,1-1.89,1.54,2.82,2.82,0,0,1-2.2.22A5.25,5.25,0,0,1,24.41,49a15,15,0,0,1-1.74-2.29A30,30,0,0,1,21.19,44c-.37-.75-.73-1.51-1.07-2.28a23,23,0,0,0,8.27-1.17l.09.21a7.79,7.79,0,0,0,.67,1.38,4.53,4.53,0,0,0,.75.94,3.19,3.19,0,0,0,.6.44,2.39,2.39,0,0,0,.83.28,2.6,2.6,0,0,0,.92,0,3.31,3.31,0,0,0,.85-.35,5.89,5.89,0,0,0,1.37-1.13c-.35.75-.72,1.51-1.13,2.27s-.79,1.41-1.24,2.1M10.32,3.76c.52-.31,1.06-.59,1.6-.85a24.15,24.15,0,0,1,5-1.74,11.38,11.38,0,0,1,3.36-.3A5,5,0,0,1,23.2,2a6.07,6.07,0,0,1,1.66,2.61,15.45,15.45,0,0,1,.7,3.08,49.45,49.45,0,0,1,.33,6.13c0,.66,0,1.31,0,1.95-.69-.66-1.39-1.32-2.1-1.95a54.63,54.63,0,0,0-5.73-4.56,28.71,28.71,0,0,0-3.33-2,14.59,14.59,0,0,0-3.82-1.37,7.66,7.66,0,0,0-2.14-.1,5.28,5.28,0,0,0-2.11.67l0,0a20.66,20.66,0,0,1,3.7-2.75m17.82,11.6c.91-.76,1.87-1.48,2.85-2.15a12.62,12.62,0,0,0-.71,2,12.94,12.94,0,0,0-.44,3.23,13.57,13.57,0,0,0,.05,1.43c-.42-.45-.84-.9-1.28-1.35L27,16.85v-.53c.38-.33.76-.65,1.15-1m2.8,24.18a22.26,22.26,0,0,0,4.9-3.18l.44-.39.43-.4.52-.5a33.38,33.38,0,0,1-1.57,3.31,15.44,15.44,0,0,1-2.08,3,5,5,0,0,1-1.1.92,1.51,1.51,0,0,1-1,.24,1.31,1.31,0,0,1-.74-.39,3.23,3.23,0,0,1-.54-.68,7,7,0,0,1-.56-1.17l-.07-.18c.46-.19.91-.38,1.35-.6m-1.59-.1c-.09-.3-.24-.74-.4-1.33l-.12-.44c.41-.29.81-.58,1.19-.87a38,38,0,0,0,3.5-3.08c.59-.58,1.17-1.18,1.73-1.78.59.76,1.21,1.5,1.85,2.22l-.9.87-.42.39-.42.37a21.53,21.53,0,0,1-6,3.66h0m-3.7.1a20.85,20.85,0,0,0,2.07-1.14v.05c.17.61.32,1.07.41,1.39l0,0A21.77,21.77,0,0,1,21.86,41c-.47,0-.94,0-1.41,0a15.07,15.07,0,0,0,5.2-1.5M16.49,25.17c-.59.56-1.2,1.11-1.81,1.65-.53-1.58-1.06-3.19-1.61-4.79-.76-2.23-1.55-4.47-2.46-6.68-.45-1.11-.95-2.21-1.5-3.27a16.75,16.75,0,0,0-.93-1.58A7.41,7.41,0,0,0,7,9.08a3.21,3.21,0,0,0-.85-.53,1.91,1.91,0,0,0-.41-.11L6,8.2c.12-.11.26-.2.39-.31s.26-.19.39-.29l.1-.07L7,7.46a4.29,4.29,0,0,1,1.91-.64,6.36,6.36,0,0,1,1.85.11,13.7,13.7,0,0,1,3.54,1.3,30.47,30.47,0,0,1,3.19,1.94A54.21,54.21,0,0,1,23,14.69c.73.67,1.46,1.35,2.16,2-2.93,2.69-5.73,5.61-8.7,8.43m1,9.9c-.88-2.44-1.72-4.94-2.57-7.49Q16,26.67,17,25.72c3-2.81,5.88-5.72,8.82-8.36l.07.07c0,.71,0,1.41,0,2.1,0,1.82,0,3.54.05,5.17a72.57,72.57,0,0,0,.69,8.41c.23,1.52.53,3,.9,4.52a19.27,19.27,0,0,1-2.17,1.27,14,14,0,0,1-5.15,1.54l-.61,0q-1.11-2.67-2.08-5.4M5,31.82a4,4,0,0,0,1,.31,4.7,4.7,0,0,0,1.06,0,7.06,7.06,0,0,0,2-.54,15.18,15.18,0,0,0,1.79-.93,31.35,31.35,0,0,0,3.2-2.35h0c.76,2.42,1.52,4.82,2.32,7.15q.86,2.51,1.81,5h-.13l-.36,0-.36,0a17.28,17.28,0,0,1-2.91-.53c-.53-.14-1-.3-1.55-.49A19.51,19.51,0,0,1,3.37,30.5,4.54,4.54,0,0,0,5,31.82M5.17,9.11a1.66,1.66,0,0,1,1.33.52,6.5,6.5,0,0,1,1.07,1.29,17.11,17.11,0,0,1,.86,1.52c.52,1.05,1,2.13,1.42,3.22.85,2.2,1.6,4.44,2.32,6.67.57,1.75,1.11,3.5,1.66,5.24l-.23.19a27.91,27.91,0,0,1-3.11,2.32A10.9,10.9,0,0,1,8.8,31a6.06,6.06,0,0,1-1.79.5,3.87,3.87,0,0,1-.9,0,3.61,3.61,0,0,1-.85-.25,3.83,3.83,0,0,1-1.39-1.15l-.14-.18-.13-.19-.27-.42a17.51,17.51,0,0,1-2.1-4.91,21.05,21.05,0,0,1-.18-6.76,17.26,17.26,0,0,1,1.1-4.07A13.81,13.81,0,0,1,4.22,10c.23-.28.46-.55.71-.81l.24-.07M35.53,30.19c-.09-.11-.17-.23-.25-.35A27.72,27.72,0,0,1,33,26.07c-.29-.57-.55-1.16-.79-1.76q2.09,2.46,4,5c-.24.3-.49.58-.73.87m2.28,1.24c.18.25.36.49.53.74-.13.35-.25.71-.38,1-.64-.72-1.25-1.47-1.84-2.23l.75-.86c.33.45.65.88.94,1.3m1.35-1.89c-.11.39-.22.76-.34,1.13-.36-.51-.74-1-1.11-1.52l.86-1c.51-.61,1-1.17,1.39-1.66-.23,1-.5,2.06-.79,3.08M30.23,22a20.76,20.76,0,0,0,1.66,4.62,31.34,31.34,0,0,0,2.36,3.94l.43.59c-.59.65-1.18,1.28-1.79,1.91a39.06,39.06,0,0,1-3.36,3.07l-.91.7c-.31-1.3-.57-2.61-.77-3.93a73,73,0,0,1-.73-8.26c-.06-1.61-.08-3.32-.1-5.13v-1c1.1,1.13,2.17,2.29,3.22,3.46m3.86-10.56a8.74,8.74,0,0,1,3.2-.81,3,3,0,0,1,1.43.31,3.11,3.11,0,0,1,1.08,1,5.48,5.48,0,0,1,.68,1.37,9.15,9.15,0,0,1,.39,1.54A18.59,18.59,0,0,1,41.09,18a38,38,0,0,1-.63,6.06l-.09.49-.13.08-.25.22c-.15.15-.29.3-.43.46-.55.62-1.12,1.35-1.78,2.16l-.7.87Q35,25.59,32.7,23l-1.34-1.51a1.89,1.89,0,0,1-.05-.23,12.8,12.8,0,0,1,.12-5.73A11.77,11.77,0,0,1,33,12c.35-.19.71-.36,1.07-.52M52.48,9.61a6.35,6.35,0,0,0-.91-2A6.25,6.25,0,0,0,50,6a7.81,7.81,0,0,0-1.93-.93A11.12,11.12,0,0,0,44,4.63a15.44,15.44,0,0,0-3.86.75,16.38,16.38,0,0,0-6.36,3.85A15,15,0,0,0,32,11.45c-.49.3-1,.61-1.45.93-1,.71-2,1.47-3,2.27l-.58.49c0-.44,0-.88,0-1.33a50.66,50.66,0,0,0-.43-6.25,16.21,16.21,0,0,0-.79-3.27A8.34,8.34,0,0,0,25,2.7a6.29,6.29,0,0,0-1.19-1.38,5.36,5.36,0,0,0-1.6-.93,6.92,6.92,0,0,0-.89-.25A7.09,7.09,0,0,0,20.38,0a10,10,0,0,0-1.82.05,15.58,15.58,0,0,0-1.79.31A26,26,0,0,0,11.6,2.24c-.55.27-1.1.57-1.65.88a20.81,20.81,0,0,0-5.74,5,19.82,19.82,0,0,0-2.68,4.52c-.08.18-.16.35-.23.53A18.36,18.36,0,0,0,.18,17.48,21.83,21.83,0,0,0,.07,22a22.81,22.81,0,0,0,2.54,8.76,21.16,21.16,0,0,0,2.6,3.85,20.46,20.46,0,0,0,7.5,5.48,21.23,21.23,0,0,0,6,1.56l0,0a41.35,41.35,0,0,0,2.83,5.74A16.49,16.49,0,0,0,23.41,50,8.11,8.11,0,0,0,24.6,51a5.42,5.42,0,0,0,1.47.77,4.2,4.2,0,0,0,1.69.19,4.53,4.53,0,0,0,1.57-.47,8.33,8.33,0,0,0,2.32-1.86,19.11,19.11,0,0,0,1.64-2.18c.48-.74.9-1.49,1.29-2.22.77-1.47,1.41-2.9,2-4.26q1.06-2.61,2-5.28c.41.43.75.76,1,1l.41.4,0,0,.16.12.39.26.33.18.24.09a1.21,1.21,0,0,0,.36.08.79.79,0,0,0,.32,0,.78.78,0,0,0,.4-.26.89.89,0,0,0,.18-.38,1.32,1.32,0,0,0,0-.27,1.67,1.67,0,0,0-.06-.38,1.58,1.58,0,0,0-.09-.31,8.17,8.17,0,0,0-.55-1.2c-.22-.41-.47-.85-.76-1.3s-.58-.93-.89-1.38c1.6-1.63,3.14-3.3,4.59-5a50.72,50.72,0,0,0,5.24-7.23,26,26,0,0,0,1.93-4,13.68,13.68,0,0,0,.94-4.29,7.9,7.9,0,0,0-.21-2.22"/><path class="cls-1" d="M40.76,36.16l.07.05.32.21.22.12.1,0h0l-.11,0a.48.48,0,0,0-.22.15.35.35,0,0,0-.08.16v0a.36.36,0,0,0,0-.11,1.46,1.46,0,0,0,0-.2,9.41,9.41,0,0,0-.47-1q-.35-.62-.72-1.23c-.63-1-1.3-2-2-3-1.57-2.19-3.59-4.79-6-7.64q-1.95-2.28-4-4.45c-1.52-1.6-3.1-3.16-4.73-4.65a55.57,55.57,0,0,0-5.57-4.52,30.47,30.47,0,0,0-3.19-1.94,13.7,13.7,0,0,0-3.54-1.3,6.38,6.38,0,0,0-1.85-.11,4.36,4.36,0,0,0-1.73.53L7,7.46l-.11.07-.1.07c-.13.1-.27.19-.39.29s-.27.2-.39.31A12.94,12.94,0,0,0,4.22,10a13.81,13.81,0,0,0-2.07,3.54,17.26,17.26,0,0,0-1.1,4.07,21.13,21.13,0,0,0,.62,8.64,20.8,20.8,0,0,0,4.12,7.85A19.51,19.51,0,0,0,13,39.4,20.89,20.89,0,0,0,21.86,41a21.88,21.88,0,0,0,8.77-2.16,21.17,21.17,0,0,0,4.73-3.09l.42-.37L36.2,35l1.64-1.59C40,31.29,42.07,29.09,44,26.81a51.65,51.65,0,0,0,5.09-7.16A25.52,25.52,0,0,0,50.9,15.8a12.85,12.85,0,0,0,.85-4,7.52,7.52,0,0,0-.2-2,5.41,5.41,0,0,0-.78-1.71,5.64,5.64,0,0,0-3-2.07,9.81,9.81,0,0,0-3.69-.38,14.6,14.6,0,0,0-3.58.73,15.38,15.38,0,0,0-5.9,3.63,12.52,12.52,0,0,0-2,2.59,11.53,11.53,0,0,0-1.18,2.86,12.8,12.8,0,0,0-.12,5.73A19.57,19.57,0,0,0,33,26.07a28.77,28.77,0,0,0,2.27,3.77c.77,1.09,1.52,2,2.2,2.82s1.16,1.32,1.77,2,.88.91,1.15,1.17l.37.37Zm-.85,1-.41-.4c-.27-.27-.67-.67-1.17-1.2s-1.23-1.33-1.82-2c-.79-.94-1.55-1.91-2.26-2.91a30.19,30.19,0,0,1-2.36-3.94,20.35,20.35,0,0,1-1.78-5.18,14.76,14.76,0,0,1-.27-3A12.88,12.88,0,0,1,31.6,12a14.1,14.1,0,0,1,2.19-2.8,16.38,16.38,0,0,1,6.36-3.85A15.81,15.81,0,0,1,44,4.63a11.15,11.15,0,0,1,4.07.46A7.58,7.58,0,0,1,50,6a6.09,6.09,0,0,1,1.57,1.55,6.26,6.26,0,0,1,.92,2,7.93,7.93,0,0,1,.21,2.22,13.68,13.68,0,0,1-.94,4.29,25.52,25.52,0,0,1-1.93,4,50.72,50.72,0,0,1-5.24,7.23c-1.94,2.31-4,4.51-6.22,6.66l-1.65,1.59-.43.4-.44.39a22.26,22.26,0,0,1-4.9,3.18,22.76,22.76,0,0,1-9.06,2.22,21.67,21.67,0,0,1-9.17-1.69,20.46,20.46,0,0,1-7.5-5.48,21.68,21.68,0,0,1-2.6-3.85A22.81,22.81,0,0,1,.07,22a21.12,21.12,0,0,1,.11-4.5A18.36,18.36,0,0,1,1.3,13.17,15.06,15.06,0,0,1,3.48,9.38,14.35,14.35,0,0,1,5.36,7.44l.41-.33c.14-.12.29-.22.43-.32l.11-.08.11-.08a5.26,5.26,0,0,1,2.36-.82,7.66,7.66,0,0,1,2.14.1,14.59,14.59,0,0,1,3.82,1.37,28.71,28.71,0,0,1,3.33,2,55.9,55.9,0,0,1,5.73,4.55q2.49,2.25,4.82,4.68C30,20,31.37,21.45,32.7,23c2.49,2.87,4.53,5.49,6.13,7.71.8,1.11,1.49,2.13,2.05,3,.29.45.54.89.76,1.3a8,8,0,0,1,.55,1.2,1.58,1.58,0,0,1,.09.31,1.89,1.89,0,0,1,.06.38,1.32,1.32,0,0,1,0,.27.89.89,0,0,1-.18.38.78.78,0,0,1-.4.26.85.85,0,0,1-.32,0,1,1,0,0,1-.36-.08,2.34,2.34,0,0,1-.24-.09l-.33-.18-.39-.26-.16-.12,0,0Z"/><path class="cls-1" d="M28.3,40.31l-.16-.47c-.09-.31-.24-.78-.41-1.39a46,46,0,0,1-1.12-5.34,70.63,70.63,0,0,1-.68-8.41c-.05-1.72-.07-3.45-.05-5.17s0-3.72,0-5.7a51.51,51.51,0,0,0-.34-6.13,15.45,15.45,0,0,0-.7-3.08A6.07,6.07,0,0,0,23.2,2,5,5,0,0,0,20.31.87a11.38,11.38,0,0,0-3.36.3,24.74,24.74,0,0,0-5,1.74c-.54.26-1.07.54-1.6.85A20,20,0,0,0,4.74,8.55a18.35,18.35,0,0,0-3.42,6.73A17.74,17.74,0,0,0,.93,23a17.54,17.54,0,0,0,2.4,6.32l.27.42.13.19.14.18a3.83,3.83,0,0,0,1.39,1.15,3.61,3.61,0,0,0,.85.25,4,4,0,0,0,.91,0A6.15,6.15,0,0,0,8.81,31a12.28,12.28,0,0,0,1.68-.89,27.91,27.91,0,0,0,3.11-2.32c1-.83,2-1.71,2.89-2.59,3.76-3.57,7.26-7.31,11.07-10.52,1-.8,1.93-1.56,3-2.26a20.29,20.29,0,0,1,3.19-1.84,11.52,11.52,0,0,1,1.73-.63,8.63,8.63,0,0,1,.91-.21,5.53,5.53,0,0,1,.93-.09,4.18,4.18,0,0,1,1.91.4,4.12,4.12,0,0,1,1.47,1.27,6.71,6.71,0,0,1,.84,1.64,10.75,10.75,0,0,1,.44,1.71A18.3,18.3,0,0,1,42.2,18a37,37,0,0,1-.59,6.27,53.81,53.81,0,0,1-1.29,5.62q-.7,2.51-1.65,4.94A35.7,35.7,0,0,1,36.75,39a16.3,16.3,0,0,1-2.25,3.28,6.18,6.18,0,0,1-1.4,1.16,3.71,3.71,0,0,1-.85.35,2.6,2.6,0,0,1-.92,0,2.35,2.35,0,0,1-.82-.28,3,3,0,0,1-.61-.44,4.84,4.84,0,0,1-.75-.94,8.59,8.59,0,0,1-.67-1.38l-.14-.36,0-.12Zm1.2-.42s.06.18.16.43a7.72,7.72,0,0,0,.56,1.17,3.43,3.43,0,0,0,.54.68,1.31,1.31,0,0,0,.74.39,1.51,1.51,0,0,0,1-.24,5,5,0,0,0,1.1-.92,15.44,15.44,0,0,0,2.08-3,35.46,35.46,0,0,0,1.86-4,47.79,47.79,0,0,0,1.64-4.81,50.9,50.9,0,0,0,1.29-5.49A37,37,0,0,0,41.09,18a19.67,19.67,0,0,0-.22-3.16,10.22,10.22,0,0,0-.39-1.54,5.48,5.48,0,0,0-.68-1.37,3.11,3.11,0,0,0-1.08-1,3,3,0,0,0-1.44-.31,8.74,8.74,0,0,0-3.19.81A19.28,19.28,0,0,0,31,13.18a36,36,0,0,0-2.9,2.18C24.35,18.47,20.81,22.18,17,25.72c-1,.89-1.94,1.76-2.94,2.6a30,30,0,0,1-3.2,2.36,12.63,12.63,0,0,1-1.79.93,7.06,7.06,0,0,1-2,.54,4.7,4.7,0,0,1-1.06,0,4,4,0,0,1-1-.31,4.47,4.47,0,0,1-1.64-1.34l-.16-.21-.14-.21-.27-.42A18.15,18.15,0,0,1,.29,23.06a18.77,18.77,0,0,1,.39-8,19.2,19.2,0,0,1,3.53-7,20.81,20.81,0,0,1,5.74-5c.54-.31,1.09-.61,1.65-.88s1.13-.52,1.7-.75A26.43,26.43,0,0,1,16.77.38,15.21,15.21,0,0,1,18.56.07a10,10,0,0,1,1.81,0,9.05,9.05,0,0,1,.91.12,8.31,8.31,0,0,1,.89.25,5.17,5.17,0,0,1,1.61.93A5.73,5.73,0,0,1,25,2.7a9.36,9.36,0,0,1,.78,1.59,16.21,16.21,0,0,1,.79,3.27A52.69,52.69,0,0,1,27,13.81c0,2,0,3.91.06,5.72s0,3.52.1,5.13a70.79,70.79,0,0,0,.73,8.26A42.44,42.44,0,0,0,29,38.11c.16.59.3,1,.4,1.33Z"/><path class="cls-1" d="M41,27.57l-.48,1.66q-.68,2.32-1.43,4.64c-.65,2-1.47,4.41-2.58,7.12q-.88,2.17-2,4.26c-.39.73-.81,1.48-1.29,2.22a19.11,19.11,0,0,1-1.64,2.18,8.33,8.33,0,0,1-2.32,1.86,4.53,4.53,0,0,1-1.57.47,4.2,4.2,0,0,1-1.69-.19A5.43,5.43,0,0,1,24.6,51,8.65,8.65,0,0,1,23.41,50a16.49,16.49,0,0,1-1.89-2.53,41.35,41.35,0,0,1-2.83-5.74c-.83-2-1.59-4.08-2.31-6.21-1.45-4.25-2.77-8.68-4.21-13.14-.72-2.23-1.47-4.47-2.32-6.67-.43-1.09-.9-2.17-1.42-3.22a17.45,17.45,0,0,0-.86-1.52A6.5,6.5,0,0,0,6.5,9.63a1.66,1.66,0,0,0-1.33-.52A2.31,2.31,0,0,0,3.92,10,8.83,8.83,0,0,0,3,11.39c-.27.52-.51,1-.73,1.59s-.43,1.09-.62,1.65c-.1.28-.19.55-.28.84s-.17.55-.25.83a17.4,17.4,0,0,0-.49,3.44,21.09,21.09,0,0,0,.9,6.81A21.59,21.59,0,0,0,4.38,32.6a18.67,18.67,0,0,0,4.5,4.62,17,17,0,0,0,5.55,2.62,18.35,18.35,0,0,0,2.91.53l.36,0,.36,0,.72,0a11,11,0,0,0,1.41,0,14,14,0,0,0,5.15-1.54,23.71,23.71,0,0,0,4.19-2.75,37.5,37.5,0,0,0,3.36-3.07c2-2,3.59-4,4.89-5.62.66-.81,1.23-1.54,1.78-2.16.14-.16.28-.31.43-.46l.25-.22.16-.11a1,1,0,0,1,.28-.11.66.66,0,0,1,.6.16.69.69,0,0,1,.16.22.88.88,0,0,1,.06.17,1.39,1.39,0,0,1,0,.39,3.41,3.41,0,0,1-.06.51c-.11.59-.23,1-.3,1.29l-.12.43ZM40,27.25l.12-.41c.08-.27.2-.69.3-1.19a2.52,2.52,0,0,0,0-.37c0-.05,0-.1,0-.08a.1.1,0,0,0,0,0,.64.64,0,0,0,.1.13.41.41,0,0,0,.21.1.21.21,0,0,0,.14,0h0l0,0a1.07,1.07,0,0,0-.16.14c-.12.11-.25.24-.38.38-.53.58-1.11,1.3-1.78,2.1a73.69,73.69,0,0,1-5,5.6A38,38,0,0,1,30,36.8a24.57,24.57,0,0,1-4.37,2.74,15.1,15.1,0,0,1-5.42,1.52,12.15,12.15,0,0,1-1.48,0L18,41l-.37,0-.38-.05a18.46,18.46,0,0,1-8.66-3.33A19.36,19.36,0,0,1,4,32.87,22.73,22.73,0,0,1,.29,23.26a20,20,0,0,1-.2-3.54,16.56,16.56,0,0,1,.47-3.56q.1-.44.24-.87c.09-.28.18-.57.28-.85.19-.57.39-1.13.61-1.69s.47-1.11.74-1.65a8.91,8.91,0,0,1,1-1.56,4.1,4.1,0,0,1,.7-.68,2.13,2.13,0,0,1,.94-.42,1.8,1.8,0,0,1,1.05.11A3.21,3.21,0,0,1,7,9.08,7.41,7.41,0,0,1,8.18,10.5a18,18,0,0,1,.93,1.57c.55,1.07,1.05,2.16,1.5,3.28.91,2.21,1.7,4.45,2.46,6.68,1.52,4.45,2.92,8.85,4.43,13,.76,2.1,1.53,4.14,2.37,6.1.42,1,.86,1.94,1.32,2.86s.95,1.82,1.48,2.66A15,15,0,0,0,24.41,49a5.25,5.25,0,0,0,2.09,1.45,2.82,2.82,0,0,0,2.2-.22,6.57,6.57,0,0,0,1.89-1.54,14.77,14.77,0,0,0,1.51-2c.44-.69.86-1.4,1.24-2.1.71-1.34,1.37-2.71,2-4.11,1.13-2.65,2-5,2.66-7S39.33,29.34,40,27.25Z"/></g></g></svg>