<svg xmlns="http://www.w3.org/2000/svg" viewBox="0 0 337.88 54"><defs><style>.cls-1,.cls-2{fill:#fff;}.cls-2{fill-rule:evenodd;}</style></defs><g id="Layer_2" data-name="Layer 2"><g id="Layer_1-2" data-name="Layer 1"><path class="cls-1" d="M156.44,54H158V0h-1.59ZM144,27.34h-3.1V43.43H144Zm-3.14-4.22H144V7h-3.1Zm-1.33,20.27-6.67-8.71,6.49-7.34h-4l-6.11,7.08V27.34h-3.1V43.43h3.1v-5l1.34-1.56,5,6.56ZM127.82,23.12h10.63V20.27h-7.57v-4h6.88V13.5h-6.88V9.88h7.57V7.07H127.82Z"/><path class="cls-2" d="M126.31,23.12l-4.56-6.52A4.38,4.38,0,0,0,125.54,12C125.54,8.88,123.47,7,120,7h-6.24V23.12h3.1V16.78h1.5l4.35,6.34Zm-6.32-9h-3.1V9.79H120c1.55,0,2.49.82,2.49,2.16s-.94,2.15-2.49,2.15Z"/><path class="cls-1" d="M111.08,16.69V7H108v9.36c0,2.8-1.12,4.14-3.36,4.14s-3.35-1.34-3.35-4.14V7H98.12v9.62c0,4.18,2.42,6.73,6.46,6.73S111.08,20.88,111.08,16.69ZM92.32,23.12h3.09V7H92.32v6.43H85V7h-3.1V23.12H85V16.3h7.36Z"/><path class="cls-2" d="M77,23.12h3.19L74,7H71.14L65,23.12h3.18l1.59-4.31H75.4L77,23.12Zm-2.62-7.07H70.8l1.76-4.84L74.37,16Z"/><path class="cls-1" d="M76.35,27.34H62.92v2.81h5.16V43.39h3.1V30.15h5.17ZM47.73,23.12H58.36V20.27H50.78v-4h6.89V13.5H50.78V9.88h7.58V7.07H47.73V23.12ZM40.54,9.88h5.17V7.07H32.28V9.88h5.16V23.12h3.1V9.88ZM33.83,27.34h-3.1V43.43h3.1V27.34Z"/><path class="cls-2" d="M28.58,35.37c0-4.79-3.15-8.28-7.45-8.28s-7.4,3.49-7.4,8.28,3.1,8.28,7.4,8.28S28.58,40.16,28.58,35.37Zm-3.15,0c0,3.19-1.76,5.43-4.3,5.43s-4.26-2.2-4.26-5.43,1.72-5.44,4.26-5.44S25.44,32.13,25.43,35.37Z"/><path class="cls-1" d="M8.26,30.15h5.17v-2.8H0v2.8H5.16V43.39h3.1V30.15Z"/><path class="cls-2" d="M42.69,35.37c0,4.78,3.1,8.28,7.41,8.28s7.44-3.49,7.44-8.28-3.14-8.28-7.44-8.28S42.69,30.54,42.69,35.37Zm3.14,0c0-3.28,1.73-5.44,4.27-5.44s4.3,2.25,4.3,5.44-1.76,5.43-4.3,5.43S45.83,38.6,45.83,35.37Z"/><path class="cls-1" d="M79.53,26.09h6.2V24.5h-6.2Z"/><path class="cls-2" d="M81.17,27.34,75,43.43H78.2l1.59-4.31h5.64L87,43.43h3.19L84.05,27.34Zm-.39,9,1.76-4.83,1.77,4.83Z"/><path class="cls-1" d="M95.24,27.34h-3.4V43.43h3V33.56l3.87,9.83h2.2l3.79-9.79v9.79h3v-16h-3.36L99.85,38.91,95.24,27.35Z"/><path class="cls-2" d="M115.51,27.34l-6.15,16.09h3.18l1.6-4.31h5.63l1.6,4.31h3.18l-6.2-16.09Zm-.39,9,1.77-4.83,1.76,4.83Z"/><path class="cls-1" d="M337.88,40.41v3h-10.8V27.3h3.32V40.41Z"/><path class="cls-2" d="M324.63,43.56h-3.4l-1.51-4h-6l-1.42,3.88h-3.36l6.15-16.09h3.32Zm-9.9-6.86h3.92l-1.94-5.34-2,5.34Z"/><path class="cls-1" d="M309.82,27.3l-6,16.09h-3.23l-6-16.09h3.53l4.13,11.6,4.17-11.6ZM292.65,43.39H289.3V27.3h3.35V43.39Z"/><path class="cls-2" d="M283.79,7.07c4.86,0,7.92,3.11,7.92,8s-3.06,8-7.92,8.06h-5.68V7.07Zm-.13,13.12c3,0,4.73-2,4.73-5.09S286.71,10,283.66,10h-2.24V20.19Z"/><path class="cls-1" d="M275,23.12h-2.63l-7.62-10.7v10.7h-3.22V7h3.14l7.1,10.18V7H275ZM260,32c0-2.93,2.41-5,5.77-5,3.65,0,5.76,1.94,6.37,4.62h-3.32a2.86,2.86,0,0,0-3-1.9c-1.5,0-2.54.73-2.54,1.9,0,.95.61,1.46,1.81,1.77l2.93.69c2.62.6,4.22,2.11,4.22,4.53,0,3.1-2.54,5-5.94,5-3.58,0-6.11-1.77-6.67-4.83h3.44a3,3,0,0,0,3.18,2.07c1.6,0,2.67-.74,2.67-2,0-1-.6-1.51-2-1.81l-2.88-.65C261.79,35.88,260,34.63,260,32Z"/><path class="cls-2" d="M259.64,23.12h-3.4l-1.42-3.88h-6l-1.42,3.88H244L250.17,7h3.32l6.15,16.09Zm-9.81-6.69h3.92l-1.94-5.35Z"/><path class="cls-1" d="M242.73,23.12H231.88V7h3.36V20.14h7.49Zm-19-8.89,6.37,8.89H226l-4.78-6.56-1.5,1.81v4.75h-3.36V7h3.36v7.25l6-7.25h4ZM214.07,32c0-2.93,2.41-5,5.76-5,3.66,0,5.77,1.94,6.29,4.62H222.8a2.85,2.85,0,0,0-3-1.9c-1.5,0-2.54.73-2.54,1.9,0,.95.61,1.46,1.81,1.77l2.93.69c2.62.6,4.22,2.11,4.22,4.53,0,3.1-2.54,5-5.94,5-3.58,0-6.11-1.77-6.67-4.83h3.44a3,3,0,0,0,3.18,2.07c1.64,0,2.72-.74,2.72-2,0-1-.56-1.51-1.94-1.81l-2.89-.65c-2.32-.52-4.08-1.77-4.08-4.4ZM207.44,9.79c-2.58,0-4.09,2.24-4.09,5.31s1.51,5.3,4.09,5.39a3.38,3.38,0,0,0,3.4-2.51h3.31a6.38,6.38,0,0,1-6.71,5.48c-4.31,0-7.49-3.4-7.49-8.32s3.18-8.33,7.49-8.33a6.35,6.35,0,0,1,6.71,5.44h-3.31A3.38,3.38,0,0,0,207.44,9.79ZM199,27.3h13.69v2.94h-5.17V43.39h-3.36V30.24H199V27.3Z"/><path class="cls-2" d="M198.14,43.39H194.4l-4-6h-1.77v6h-3.31V27.34H192c3.35,0,5.59,1.82,5.59,5.09a4.54,4.54,0,0,1-3.66,4.75l4.22,6.21Zm-9.47-8.76h3.1c1.68,0,2.54-.86,2.54-2.2s-.86-2.24-2.54-2.24h-3.1Z"/><path class="cls-1" d="M197.88,7v9.62c0,4.44-2.62,6.73-6.67,6.73s-6.67-2.29-6.67-6.73V7h3.36V16.3c0,2.76,1.2,4.06,3.31,4.06s3.32-1.3,3.32-4.06V7Z"/><path class="cls-2" d="M183.47,23.12h-3.4l-1.42-3.88h-6l-1.42,3.88h-3.36L174,7h3.31l6.16,16.09Zm-9.82-6.69h3.92l-1.94-5.35Zm-5.81,27L174,27.3h3.31l6.16,16.09h-3.4l-1.42-3.88h-6l-1.42,3.88Zm7.79-12-2,5.34h4Z"/><path class="cls-1" d="M234.12,27.3h10.67v2.94h-7.35v4.09h6.8v2.89h-6.8v6.17h-3.32V27.3Zm13.09,0h10.88v2.94h-7.62v3.49h6.89v2.85h-6.89v3.83h7.62v3H247.2V27.3Zm26.2,0H287.1v2.94h-5.16V43.39h-3.36V30.24h-5.17Z"/></g></g></svg>